<svg width="141" height="140" viewBox="0 0 141 140" fill="none" xmlns="http://www.w3.org/2000/svg">
<g filter="url(#filter0_d_210_74)">
<rect x="25.3333" y="23" width="76" height="76" rx="38" fill="#6815D5"/>
<path d="M69.6025 43.5117H53.7629C50.7642 43.5117 48.3333 45.9427 48.3333 48.9414V77.5705C48.3333 80.5692 50.7642 83.0002 53.7629 83.0002H72.663C75.6617 83.0002 78.0927 80.5692 78.0927 77.5705V59.0603" stroke="white" stroke-width="2.46803"/>
<path d="M60.9607 58.9043L75.2373 42.9627C76.7026 41.3265 79.2169 41.188 80.8531 42.6533V42.6533C82.4893 44.1186 82.6278 46.6329 81.1625 48.2691L66.8859 64.2107" stroke="white" stroke-width="1.8938"/>
<path d="M61.2132 58.6222L59.8802 66.0719L67.1384 63.9285" stroke="white" stroke-width="1.8938" stroke-linejoin="round"/>
</g>
<defs>
<filter id="filter0_d_210_74" x="0.533253" y="0.200001" width="139.6" height="139.6" filterUnits="userSpaceOnUse" color-interpolation-filters="sRGB">
<feFlood flood-opacity="0" result="BackgroundImageFix"/>
<feColorMatrix in="SourceAlpha" type="matrix" values="0 0 0 0 0 0 0 0 0 0 0 0 0 0 0 0 0 0 127 0" result="hardAlpha"/>
<feMorphology radius="5" operator="dilate" in="SourceAlpha" result="effect1_dropShadow_210_74"/>
<feOffset dx="7" dy="9"/>
<feGaussianBlur stdDeviation="13.4"/>
<feComposite in2="hardAlpha" operator="out"/>
<feColorMatrix type="matrix" values="0 0 0 0 0.407843 0 0 0 0 0.0823529 0 0 0 0 0.835294 0 0 0 0.5 0"/>
<feBlend mode="normal" in2="BackgroundImageFix" result="effect1_dropShadow_210_74"/>
<feBlend mode="normal" in="SourceGraphic" in2="effect1_dropShadow_210_74" result="shape"/>
</filter>
</defs>
</svg>
