<svg width="551" height="552" viewBox="0 0 551 552" fill="none" xmlns="http://www.w3.org/2000/svg">
<path d="M66.4352 132.934L50.3394 210.631C57.4979 217.897 65.0907 224.765 77.3472 227.357L136.309 237.719L150.153 146.389L66.4352 132.934Z" fill="#FAFAFA"/>
<path d="M63.0751 128.14L46.9792 205.838L73.9871 222.564L132.948 232.926L150.355 145.254L63.0751 128.14Z" fill="#F5F5F5"/>
<path d="M57.9695 201.691L46.9792 205.838C46.9792 205.838 50.9498 212.308 56.7319 215.812C62.513 219.316 68.0903 221.527 73.9882 222.564C73.9882 222.564 61.1124 216.16 57.9695 201.691Z" fill="#E0E0E0"/>
<path d="M54.1138 144.821L94.4095 132.321L91.8374 123.837L50.8794 135.744L54.1138 144.821Z" fill="#EBEBEB"/>
<path d="M157.329 166.217L131.21 133.085L124.213 138.529L150.016 172.491L157.329 166.217Z" fill="#EBEBEB"/>
<path d="M135.194 171.065C135.163 171.221 120.281 168.441 101.958 164.858C83.6288 161.273 68.8002 158.241 68.8311 158.086C68.862 157.93 83.7401 160.71 102.069 164.294C120.391 167.878 135.223 170.91 135.194 171.065Z" fill="#E0E0E0"/>
<path d="M132.56 182.977C132.529 183.132 117.647 180.353 99.3245 176.769C80.9961 173.184 66.1665 170.153 66.1973 169.997C66.2282 169.842 81.1063 172.621 99.4347 176.205C117.758 179.789 132.59 182.82 132.56 182.977Z" fill="#E0E0E0"/>
<path d="M130.856 193.658C130.825 193.814 115.944 191.035 97.6207 187.451C79.2922 183.866 64.4626 180.836 64.4935 180.679C64.5243 180.524 79.4024 183.303 97.7309 186.888C116.054 190.471 130.887 193.503 130.856 193.658Z" fill="#E0E0E0"/>
<path d="M128.788 203.86C128.757 204.015 113.875 201.236 95.5523 197.652C77.2239 194.067 62.3942 191.036 62.4251 190.88C62.456 190.725 77.3341 193.504 95.6625 197.089C113.987 200.673 128.818 203.704 128.788 203.86Z" fill="#E0E0E0"/>
<path d="M443.697 97.2096L422.863 148.007C415.944 149.405 408.931 150.408 400.898 147.15L363.066 130.277L390.466 72.5303L443.697 97.2096Z" fill="#FAFAFA"/>
<path d="M447.48 95.7602L426.646 146.558L404.681 145.701L366.849 128.829L390.791 71.8027L447.48 95.7602Z" fill="#F5F5F5"/>
<path d="M421.947 139.926L426.647 146.558C426.647 146.558 421.866 148.733 417.193 148.505C412.521 148.278 408.466 147.388 404.682 145.701C404.682 145.701 414.545 147.01 421.947 139.926Z" fill="#E0E0E0"/>
<path d="M446.165 108.796L427.888 86.0329L432.646 82.1616L451.533 104.842L446.165 108.796Z" fill="#EBEBEB"/>
<path d="M378.679 81.128L406.482 72.2305L408.39 78.0612L380.445 87.5571L378.679 81.128Z" fill="#EBEBEB"/>
<path d="M389.501 92.4751C389.562 92.3296 399.259 96.2935 411.156 101.329C423.058 106.365 432.652 110.566 432.59 110.711C432.528 110.856 422.834 106.894 410.932 101.857C399.035 96.8225 389.439 92.6205 389.501 92.4751Z" fill="#E0E0E0"/>
<path d="M386.402 100.327C386.464 100.182 396.16 104.146 408.057 109.181C419.959 114.217 429.553 118.418 429.491 118.563C429.43 118.708 419.735 114.746 407.834 109.71C395.936 104.673 386.34 100.473 386.402 100.327Z" fill="#E0E0E0"/>
<path d="M383.245 107.114C383.306 106.969 393.003 110.933 404.9 115.968C416.802 121.004 426.396 125.205 426.334 125.35C426.272 125.496 416.578 121.533 404.676 116.497C392.78 111.461 383.183 107.26 383.245 107.114Z" fill="#E0E0E0"/>
<path d="M380.484 113.766C380.546 113.621 390.242 117.585 402.139 122.62C414.041 127.656 423.635 131.855 423.573 132.002C423.512 132.147 413.817 128.185 401.916 123.149C390.018 118.113 380.422 113.912 380.484 113.766Z" fill="#E0E0E0"/>
<path d="M421.041 313.68C404.163 299.923 401.837 276.541 404.079 255.844C404.453 252.39 404.344 248.71 406.216 245.793C408.089 242.877 412.087 241.085 415.081 242.775C417.563 244.176 418.461 247.251 419.718 249.832C421.387 253.267 424.039 256.203 427.265 258.193C429.386 259.501 432.062 260.403 434.329 259.364C437.439 257.937 438.097 253.837 438.332 250.39C438.767 243.966 439.203 237.542 439.64 231.12C439.873 227.674 440.125 224.155 441.438 220.966C442.752 217.776 445.345 214.915 448.689 214.24C452.035 213.565 455.947 215.755 456.389 219.178C456.573 220.602 456.18 222.037 456.169 223.474C456.159 224.911 456.707 226.543 458.035 227.043C459.381 227.548 460.831 226.673 461.935 225.742C465.749 222.528 468.493 218.225 471.079 213.938C473.664 209.649 476.191 205.249 479.698 201.695C483.206 198.14 487.892 195.466 492.845 195.552C497.8 195.639 502.831 199.073 503.718 204.009C504.608 208.958 501.409 213.675 498.035 217.378C493.028 222.872 487.234 227.628 480.893 231.452C479.75 232.142 478.512 232.888 478.001 234.133C477.083 236.374 479.09 238.816 481.302 239.74C483.806 240.786 486.612 240.725 489.275 241.241C491.937 241.756 494.76 243.157 495.587 245.771C496.738 249.397 493.519 252.869 490.442 255.071C484.282 259.481 477.372 262.813 470.113 264.879C467.51 265.618 464.783 266.234 462.608 267.863C460.432 269.493 458.969 272.497 460.023 275.014C461.079 277.535 464.19 278.546 466.881 278.25C469.571 277.955 472.054 276.69 474.655 275.924C479.521 274.488 485.611 275.267 488.339 279.584C490.132 282.421 490.031 286.179 488.784 289.31C487.539 292.441 485.29 295.051 482.931 297.436C474.683 305.775 464.439 312.222 453.174 315.216C441.911 318.204 431.659 318.48 421.041 313.68Z" fill="#F5F5F5"/>
<path d="M419.628 329.043C420.989 320.878 423.512 311.305 427.362 301.069C431.193 290.824 436.322 279.943 442.079 268.746C443.528 265.952 444.961 263.191 446.372 260.471C447.786 257.759 449.19 255.067 450.726 252.522C453.775 247.414 457.095 242.736 460.386 238.395C463.675 234.05 466.956 230.048 470.05 226.327C473.155 222.611 476.112 219.203 478.941 216.211C484.582 210.204 489.696 205.907 493.327 203.1C495.139 201.691 496.582 200.643 497.569 199.947C498.044 199.616 498.417 199.357 498.697 199.161C498.952 198.988 499.087 198.903 499.093 198.912C499.101 198.921 498.979 199.023 498.735 199.215C498.464 199.423 498.103 199.699 497.644 200.051C496.682 200.782 495.265 201.86 493.478 203.297C489.899 206.161 484.85 210.495 479.267 216.523C476.467 219.526 473.536 222.943 470.455 226.668C467.38 230.401 464.119 234.41 460.85 238.753C457.58 243.094 454.284 247.762 451.259 252.846C449.736 255.38 448.347 258.048 446.931 260.768C445.522 263.488 444.091 266.247 442.643 269.04C436.892 280.228 431.759 291.076 427.91 301.279C424.043 311.471 421.485 320.994 420.073 329.119" fill="#E0E0E0"/>
<path d="M450.909 252.51C450.866 252.513 450.787 251.981 450.682 251.016C450.571 250.05 450.458 248.648 450.343 246.915C450.111 243.449 449.952 238.651 449.798 233.361C449.644 228.069 449.418 223.287 449.133 219.834C448.996 218.108 448.87 216.711 448.771 215.747C448.677 214.782 448.646 214.244 448.689 214.237C448.732 214.231 448.847 214.756 449.015 215.713C449.191 216.668 449.385 218.062 449.579 219.789C449.98 223.243 450.278 228.041 450.431 233.339C450.57 238.56 450.696 243.283 450.792 246.891C450.845 248.521 450.891 249.894 450.928 250.997C450.956 251.967 450.953 252.507 450.909 252.51Z" fill="#E0E0E0"/>
<path d="M495.811 247.517C495.809 247.561 495.173 247.587 494.029 247.597C492.885 247.615 491.23 247.629 489.186 247.715C485.097 247.852 479.455 248.239 473.25 248.938C467.043 249.649 461.454 250.532 457.43 251.287C455.415 251.649 453.792 251.987 452.669 252.214C451.546 252.446 450.92 252.553 450.909 252.511C450.899 252.467 451.505 252.278 452.614 251.971C453.722 251.67 455.334 251.263 457.346 250.84C461.359 249.969 466.957 249.013 473.181 248.299C479.405 247.598 485.073 247.281 489.178 247.261C491.23 247.234 492.891 247.287 494.037 247.348C495.181 247.414 495.812 247.471 495.811 247.517Z" fill="#E0E0E0"/>
<path d="M427.967 300.294C427.946 300.302 427.857 300.108 427.704 299.732C427.531 299.284 427.321 298.736 427.066 298.074C426.518 296.631 425.779 294.523 424.901 291.907C423.14 286.675 420.936 279.371 418.611 271.279C416.286 263.184 414.153 255.868 412.504 250.608C411.695 248.05 411.029 245.945 410.534 244.381C410.323 243.702 410.149 243.144 410.007 242.683C409.894 242.293 409.843 242.085 409.864 242.076C409.885 242.069 409.974 242.263 410.127 242.64C410.3 243.089 410.511 243.635 410.765 244.297C411.313 245.74 412.052 247.848 412.931 250.464C414.692 255.697 416.896 263.001 419.22 271.096C421.544 279.189 423.678 286.503 425.327 291.765C426.138 294.322 426.803 296.428 427.298 297.99C427.51 298.669 427.683 299.23 427.825 299.688C427.938 300.079 427.988 300.287 427.967 300.294Z" fill="#E0E0E0"/>
<path d="M488.227 285.69C488.231 285.712 488.023 285.779 487.625 285.887C487.153 286.007 486.575 286.154 485.873 286.333C484.256 286.728 482.074 287.261 479.42 287.908C473.97 289.239 466.466 291.165 458.175 293.302C449.883 295.443 442.353 297.299 436.874 298.518C434.134 299.129 431.913 299.6 430.372 299.895C429.66 300.026 429.073 300.134 428.595 300.223C428.188 300.291 427.971 300.316 427.966 300.295C427.962 300.273 428.17 300.205 428.568 300.096C429.038 299.977 429.617 299.83 430.319 299.651C431.936 299.257 434.116 298.724 436.771 298.076C442.22 296.746 449.726 294.82 458.019 292.681C466.309 290.542 473.838 288.684 479.316 287.466C482.056 286.856 484.276 286.384 485.819 286.091C486.531 285.96 487.117 285.85 487.596 285.763C488.005 285.693 488.221 285.669 488.227 285.69Z" fill="#E0E0E0"/>
<path d="M513.255 506.156C513.255 506.315 408.99 506.443 280.402 506.443C151.768 506.443 47.5259 506.315 47.5259 506.156C47.5259 505.997 151.768 505.87 280.402 505.87C408.991 505.87 513.255 505.997 513.255 506.156Z" fill="#263238"/>
<path d="M188.193 86.2281L214.776 167.285C225.34 170.227 236.096 172.566 248.91 168.422L309.429 146.522L273.45 53.9604L188.193 86.2281Z" fill="#E0E0E0"/>
<path d="M182.494 83.5579L209.078 164.613L243.211 165.751L303.731 143.852L273.029 52.7944L182.494 83.5579Z" fill="#E8505B"/>
<path d="M217.105 154.865L209.078 164.614C209.078 164.614 216.243 168.52 223.51 168.693C230.775 168.865 237.158 167.942 243.213 165.751C243.213 165.751 227.78 166.673 217.105 154.865Z" fill="#E8505B"/>
<path opacity="0.3" d="M217.105 154.865C214.665 159.798 212.203 165.576 209.078 164.614C209.078 164.614 216.243 168.52 223.51 168.693C230.775 168.865 237.158 167.942 243.213 165.751C243.213 165.751 227.78 166.673 217.105 154.865Z" fill="black"/>
<path d="M183.069 103.906L213.947 70.6832L207.007 64.1494L175.195 97.1752L183.069 103.906Z" fill="#E0E0E0"/>
<path d="M290.753 68.6048L248.666 51.6968L245.056 60.5172L287.294 78.3696L290.753 68.6048Z" fill="#E0E0E0"/>
<path d="M272.71 84.9749C272.76 85.1248 257.395 90.4904 238.394 96.9569C219.387 103.426 203.941 108.547 203.891 108.397C203.84 108.247 219.202 102.882 238.209 96.4137C257.21 89.946 272.659 84.825 272.71 84.9749Z" fill="#263238"/>
<path d="M276.631 97.4895C276.681 97.6394 261.316 103.005 242.316 109.472C223.308 115.94 207.863 121.061 207.812 120.911C207.761 120.762 223.123 115.397 242.13 108.928C261.131 102.462 276.579 97.3397 276.631 97.4895Z" fill="#263238"/>
<path d="M280.76 108.361C280.811 108.511 265.445 113.876 246.445 120.343C227.437 126.811 211.992 131.932 211.941 131.783C211.89 131.633 227.252 126.268 246.26 119.799C265.26 113.333 280.709 108.211 280.76 108.361Z" fill="#263238"/>
<path d="M284.293 118.979C284.343 119.129 268.978 124.495 249.978 130.961C230.97 137.43 215.525 142.551 215.474 142.401C215.423 142.251 230.785 136.887 249.794 130.418C268.793 123.95 284.241 118.829 284.293 118.979Z" fill="#263238"/>
<path d="M325.107 351.144L319.776 400.784C319.776 400.784 309.387 385.076 302.356 392.077C295.656 398.746 283.825 447.45 283.825 447.45C283.825 447.45 283.661 463.332 292.111 467.528C319.163 480.956 349.295 455.635 349.295 455.635L345.024 313.689C333.808 323.144 326.673 336.56 325.107 351.144Z" fill="#073C52"/>
<path d="M416.44 316.68L369.591 312.939C369.3 307.469 369.69 286.307 369.69 286.307C369.69 286.307 350.197 283.277 349.957 263.788C349.716 244.299 353.095 199.547 353.095 199.547C375.656 189.851 401.697 193.124 421.155 208.103L424.043 210.326L416.44 316.68Z" fill="#D29E89"/>
<path d="M369.658 286.026C369.658 286.026 381.976 287.028 395.066 278.805C395.066 278.805 389.06 292.831 369.613 291.075L369.658 286.026Z" fill="#AA6550"/>
<path d="M421.642 230.512C421.974 230.367 435.033 226.551 434.607 239.875C434.182 253.198 420.892 250.024 420.881 249.64C420.87 249.258 421.642 230.512 421.642 230.512Z" fill="#D29E89"/>
<path d="M425.113 244.723C425.173 244.682 425.34 244.893 425.727 245.086C426.104 245.273 426.757 245.415 427.461 245.177C428.884 244.705 430.142 242.509 430.283 240.109C430.356 238.897 430.138 237.734 429.74 236.764C429.364 235.777 428.755 235.076 428.05 234.927C427.35 234.742 426.835 235.15 426.659 235.52C426.469 235.887 426.545 236.156 426.474 236.176C426.436 236.208 426.195 235.943 426.32 235.397C426.384 235.135 426.549 234.825 426.871 234.579C427.199 234.329 427.673 234.212 428.166 234.28C429.191 234.384 430.086 235.359 430.524 236.424C431.019 237.495 431.292 238.803 431.21 240.163C431.039 242.845 429.584 245.314 427.64 245.809C426.696 246.022 425.922 245.716 425.529 245.388C425.127 245.046 425.066 244.746 425.113 244.723Z" fill="#AA6550"/>
<path d="M357.391 229.75C357.339 231.22 358.54 232.475 360.074 232.558C361.605 232.64 362.891 231.519 362.943 230.049C362.994 228.579 361.793 227.321 360.261 227.239C358.729 227.156 357.443 228.28 357.391 229.75Z" fill="#263238"/>
<path d="M356.783 226.962C357.128 227.324 359.238 225.764 362.232 225.773C365.224 225.738 367.421 227.279 367.746 226.912C367.906 226.75 367.554 226.095 366.597 225.398C365.655 224.704 364.048 224.029 362.182 224.037C360.316 224.047 358.747 224.734 357.846 225.437C356.926 226.143 356.614 226.8 356.783 226.962Z" fill="#263238"/>
<path d="M386.722 230.795C386.67 232.264 387.872 233.52 389.405 233.602C390.936 233.685 392.222 232.563 392.273 231.093C392.325 229.623 391.124 228.366 389.592 228.283C388.059 228.2 386.773 229.326 386.722 230.795Z" fill="#263238"/>
<path d="M386.223 227.521C386.569 227.883 388.68 226.323 391.672 226.332C394.663 226.296 396.861 227.837 397.186 227.47C397.345 227.308 396.998 226.653 396.037 225.956C395.095 225.262 393.488 224.587 391.623 224.595C389.758 224.606 388.188 225.292 387.286 225.994C386.368 226.703 386.054 227.359 386.223 227.521Z" fill="#263238"/>
<path d="M375.353 249.733C375.368 249.562 373.505 249.241 370.489 248.855C369.724 248.776 369 248.624 368.871 248.103C368.691 247.551 369.011 246.725 369.382 245.836C370.1 243.986 370.853 242.045 371.643 240.013C374.784 231.722 377.057 224.903 376.722 224.78C376.387 224.657 373.569 231.276 370.429 239.568C369.673 241.612 368.95 243.561 368.262 245.426C367.972 246.294 367.475 247.281 367.865 248.428C368.071 248.999 368.632 249.414 369.123 249.546C369.613 249.696 370.043 249.704 370.421 249.727C373.459 249.889 375.342 249.902 375.353 249.733Z" fill="#263238"/>
<path d="M385.45 215.784C385.746 216.599 388.736 216.213 392.249 216.636C395.773 216.989 398.606 218.018 399.072 217.288C399.28 216.938 398.787 216.172 397.64 215.383C396.505 214.597 394.693 213.848 392.583 213.614C390.474 213.383 388.542 213.718 387.263 214.238C385.973 214.757 385.323 215.398 385.45 215.784Z" fill="#263238"/>
<path d="M357.885 218.295C358.411 218.975 360.474 218.268 362.956 218.236C365.435 218.116 367.538 218.692 368.021 217.982C368.232 217.637 367.902 216.955 366.984 216.311C366.079 215.67 364.566 215.145 362.861 215.196C361.156 215.25 359.68 215.867 358.817 216.563C357.94 217.262 357.652 217.963 357.885 218.295Z" fill="#263238"/>
<path d="M343.6 187.243C343.392 184.827 344.29 182.234 346.257 180.815C348.223 179.396 351.272 179.486 352.869 181.31C351.955 178.055 354.615 174.302 357.988 174.088C361.166 173.887 363.877 176.288 366.949 177.13C369.946 177.952 373.164 177.241 376.048 176.08C378.932 174.918 381.627 173.315 384.548 172.249C390.638 170.025 397.602 170.304 403.495 173.009C409.388 175.715 414.14 180.814 416.423 186.883C420.685 185.55 425.529 187.715 428.157 191.325C430.785 194.935 431.46 199.677 430.936 204.111C430.584 207.109 429.716 210.004 428.708 212.857C428.709 213.107 428.733 213.353 428.729 213.604C428.527 224.321 427.316 236.906 422.744 236.976C414.775 237.098 416.674 222.084 416.674 222.084C406.894 218.305 410.538 203.653 408.092 201.43C405.646 199.207 400.531 194.042 380.056 204.507C372.105 208.57 361.533 208.443 355.763 207.134C355.594 207.098 355.423 207.071 355.254 207.03C355.219 207.022 355.172 207.015 355.136 207.006C355.073 206.99 355.028 206.955 354.967 206.938C353.127 206.458 351.353 205.747 349.715 204.711C347.861 203.537 346.175 201.948 345.388 199.899C344.602 197.851 344.898 195.293 346.505 193.799C344.992 191.902 343.81 189.658 343.6 187.243Z" fill="#263238"/>
<path d="M454.765 438.979L456.238 466.635L459.531 506.361H334.317L339.754 447.665L329.09 354.933C330.017 322.165 342.6 308.539 368.345 305.409C368.56 305.383 366.099 305.689 366.316 305.664C369.861 305.245 366.316 305.664 368.345 305.409C384.996 310.536 401.647 310.526 418.298 305.379V305.381C426.018 305.708 432.414 308.085 438.98 309.343C459.662 313.306 476.69 329.287 480.826 343.198C484.231 354.65 508.86 453.969 508.86 453.969H459.865L454.765 438.979Z" fill="#073C52"/>
<path d="M372.812 258.945C373.282 260.135 373.762 261.341 374.549 262.35C375.336 263.357 376.486 264.156 377.764 264.216C379.125 264.281 380.436 263.476 381.195 262.344C381.954 261.212 382.212 259.803 382.152 258.442C382.097 257.211 381.534 255.743 380.31 255.598C379.801 255.537 379.301 255.734 378.825 255.926C376.683 256.795 374.539 257.664 372.396 258.533" fill="#AA6550"/>
<path d="M375.379 264.234C375.412 264.033 376.823 264.606 378.807 263.811C379.768 263.424 380.82 262.658 381.399 261.456C381.979 260.267 382.093 258.658 381.484 257.251C381.343 256.898 381.13 256.576 380.923 256.29C380.669 256.023 380.716 256.035 380.438 256.075C380.176 256.146 379.754 256.345 379.409 256.479C379.051 256.625 378.698 256.769 378.353 256.909C376.977 257.466 375.732 257.952 374.679 258.345C372.574 259.132 371.241 259.545 371.179 259.4C371.118 259.254 372.337 258.577 374.361 257.599C375.372 257.11 376.585 256.547 377.938 255.936C378.278 255.784 378.625 255.629 378.978 255.47C379.354 255.316 379.639 255.147 380.152 254.986C380.403 254.916 380.759 254.876 381.106 255.014C381.445 255.152 381.657 255.382 381.815 255.574C382.102 255.956 382.356 256.349 382.538 256.792C383.294 258.55 383.112 260.494 382.341 261.935C381.556 263.408 380.216 264.235 379.078 264.574C377.922 264.93 376.926 264.845 376.294 264.682C375.654 264.516 375.355 264.298 375.379 264.234Z" fill="#263238"/>
<path d="M328.881 433.445L299.391 342.905L296.721 327.703C296.721 327.703 288.698 293.814 288.341 290.459C287.928 286.584 285.961 285.851 284.543 286.1C282.334 286.488 281.051 289.399 281.302 292.736C281.389 293.89 283.489 312.029 283.489 312.029C283.489 312.029 282.497 310.616 279.445 307.507C276.393 304.399 269.88 303.136 263.432 304.04C256.984 304.945 255.259 305.768 255.493 308.289C255.587 309.301 256.243 310.052 257.026 310.595C258.305 311.482 259.907 311.802 261.451 311.607C271.796 310.3 275.184 315.539 275.184 315.539L275.533 317.528C275.533 317.528 268.747 313.707 263.936 316.147C263.151 316.545 262.549 317.046 262.068 317.597C259.317 317.921 256.776 319.717 255.597 322.227C254.37 324.838 254.667 328.103 256.343 330.451C257.144 331.573 258.506 332.55 259.82 332.134C260.513 331.914 261.034 331.351 261.533 330.823C261.796 330.546 262.076 330.268 262.383 330.041L264.142 335.475C264.142 335.475 268.745 347.472 270.157 352.92L284.516 444.092C286.506 456.734 298.476 465.285 311.079 463.072C324.789 460.664 333.192 446.679 328.881 433.445Z" fill="#D29E89"/>
<path d="M296.275 341.976C294.428 342.702 292.328 341.519 291.119 339.945C289.91 338.372 289.271 336.436 288.179 334.779C284.913 329.826 278.113 328.026 275.088 322.922C274.666 322.21 274.369 321.2 274.976 320.637C275.538 320.115 276.436 320.384 277.142 320.681C283.18 323.222 289.218 325.763 295.256 328.303" fill="#D29E89"/>
<path d="M295.257 328.302C295.287 328.23 294.618 327.869 293.382 327.277C292.147 326.684 290.345 325.861 288.11 324.865C285.777 323.844 283.127 322.686 280.234 321.421C279.488 321.1 278.727 320.773 277.952 320.44C277.205 320.185 276.343 319.519 275.048 319.943C274.412 320.186 274.036 320.941 274.081 321.53C274.096 322.125 274.291 322.617 274.534 323.073C275.04 323.91 275.598 324.687 276.274 325.389C278.971 328.209 282.233 329.813 284.684 331.819C285.925 332.802 286.99 333.858 287.767 335.001C288.546 336.142 289.089 337.369 289.708 338.45C290.852 340.688 292.709 342.057 294.134 342.287C295.589 342.557 296.319 341.998 296.275 341.977C296.252 341.865 295.505 342.236 294.241 341.864C292.971 341.507 291.424 340.26 290.405 338.073C289.849 337.01 289.35 335.751 288.54 334.486C287.731 333.221 286.609 332.064 285.336 331.017C282.813 328.894 279.578 327.242 277.093 324.623C276.47 323.982 275.951 323.25 275.511 322.536C275.107 321.828 275.068 321.068 275.49 320.947C275.93 320.743 276.763 321.093 277.536 321.426C278.316 321.748 279.082 322.063 279.833 322.372C282.76 323.556 285.441 324.64 287.802 325.594C290.076 326.497 291.925 327.209 293.213 327.678C294.501 328.149 295.226 328.374 295.257 328.302Z" fill="#AA6550"/>
<path d="M275.789 317.595C275.649 317.642 275.72 316.01 274.222 314.229C273.485 313.361 272.301 312.613 270.819 312.28C269.339 311.926 267.633 311.946 265.839 312.1C264.042 312.247 262.278 312.411 260.666 312.205C259.064 311.997 257.642 311.498 256.649 310.712C255.63 309.931 255.301 308.818 255.338 308.139C255.367 307.442 255.546 307.097 255.573 307.106C255.642 307.118 255.561 307.487 255.619 308.125C255.677 308.756 256.022 309.659 256.959 310.304C257.875 310.954 259.228 311.383 260.741 311.543C262.264 311.703 263.968 311.53 265.783 311.38C267.596 311.224 269.397 311.215 270.98 311.633C272.568 312.024 273.87 312.913 274.616 313.904C275.382 314.888 275.679 315.874 275.787 316.541C275.891 317.218 275.83 317.595 275.789 317.595Z" fill="#AA6550"/>
<path d="M281.227 291.448C281.331 291.444 281.463 292.824 281.669 295.051C281.908 297.53 282.195 300.483 282.51 303.748C282.875 307.009 283.205 309.958 283.482 312.433C283.741 314.655 283.896 316.032 283.794 316.05C283.699 316.066 283.365 314.718 282.975 312.507C282.583 310.297 282.146 307.228 281.789 303.823C281.436 300.419 281.228 297.326 281.157 295.083C281.083 292.841 281.13 291.451 281.227 291.448Z" fill="#AA6550"/>
<path d="M272.132 322.126C272.111 322.177 271.725 322.039 271.035 321.831C270.374 321.646 269.253 321.353 268.231 321.997C267.735 322.307 267.449 322.891 267.454 323.606C267.438 324.314 267.669 325.082 267.878 325.935C268.081 326.767 268.262 327.832 267.753 328.822C267.244 329.776 266.236 330.412 265.142 330.555C264.022 330.704 262.945 330.271 262.169 329.631C261.389 328.977 260.824 328.167 260.556 327.251C260.106 325.503 260.081 323.928 260.128 322.599C260.198 321.273 260.429 320.203 260.729 319.512C261.032 318.819 261.348 318.526 261.372 318.549C261.426 318.588 261.201 318.924 260.994 319.606C260.79 320.289 260.644 321.325 260.64 322.611C260.654 323.886 260.745 325.462 261.194 327.059C261.653 328.526 263.245 330.06 265.048 329.837C265.929 329.726 266.741 329.201 267.125 328.489C267.511 327.772 267.413 326.899 267.226 326.08C267.047 325.256 266.81 324.422 266.854 323.583C266.856 322.757 267.299 321.911 267.958 321.563C269.277 320.84 270.483 321.307 271.127 321.564C271.811 321.863 272.15 322.085 272.132 322.126Z" fill="#AA6550"/>
<path d="M262.408 329.049C262.442 329.039 262.583 329.414 262.418 330.085C262.256 330.73 261.704 331.696 260.512 332.176C259.346 332.643 257.682 332.434 256.406 331.376C255.126 330.331 254.318 328.621 254.118 326.79C253.918 324.949 254.347 323.16 255.147 321.778C255.942 320.38 257.076 319.423 258.106 318.833C259.146 318.238 260.094 317.995 260.745 317.9C261.401 317.81 261.767 317.85 261.769 317.892C261.801 318.029 260.287 318.047 258.372 319.269C257.436 319.878 256.423 320.807 255.729 322.102C255.026 323.385 254.653 325.03 254.836 326.712C255.018 328.385 255.743 329.936 256.832 330.864C257.909 331.802 259.335 332.033 260.34 331.693C261.36 331.352 261.93 330.554 262.149 329.997C262.38 329.422 262.345 329.05 262.408 329.049Z" fill="#AA6550"/>
<path d="M276.212 339.836C276.2 339.771 276.839 339.569 277.949 339.673C279.039 339.773 280.631 340.261 281.973 341.553L281.383 341.796C281.379 341.027 281.421 340.192 281.524 339.334C282.073 334.548 284.317 331.23 284.45 331.357C284.651 331.448 282.765 334.813 282.242 339.419C282.143 340.249 282.092 341.056 282.076 341.801L282.057 342.624L281.484 342.043C280.309 340.853 278.889 340.312 277.882 340.103C276.861 339.888 276.22 339.932 276.212 339.836Z" fill="#AA6550"/>
<path d="M272.545 308.982C272.725 309.048 272.165 310.424 270.643 311.279C269.129 312.148 267.66 311.922 267.695 311.733C267.694 311.523 268.974 311.413 270.286 310.65C271.614 309.914 272.365 308.872 272.545 308.982Z" fill="#AA6550"/>
<path d="M352.239 308.974C352.266 309.006 351.836 309.414 351.097 310.261C350.395 311.117 349.25 312.396 348.541 314.365C348.368 314.856 348.274 315.393 348.251 315.954C348.257 316.515 348.39 317.088 348.672 317.623C349.272 318.686 350.463 319.473 351.85 319.983C354.643 321.027 358.131 321.334 361.929 321.407C363.83 321.443 365.874 321.515 367.972 321.638C369.021 321.761 370.091 321.886 371.181 322.014C372.273 322.133 373.36 322.425 374.481 322.63C378.904 323.632 383.622 325.335 387.729 328.515C389.782 330.081 391.676 331.988 393.2 334.254C393.569 334.829 393.926 335.417 394.239 336.042C394.559 336.686 394.784 337.321 395.051 337.954C395.541 339.242 395.94 340.595 396.197 341.981C397.299 347.517 396.451 353.636 393.604 358.917C390.728 364.221 385.844 368.067 380.58 370.037C377.94 371.033 375.18 371.55 372.467 371.647C369.741 371.733 367.098 371.247 364.627 370.692C362.146 370.143 359.756 369.564 357.414 369.405C355.082 369.245 352.803 369.573 350.868 370.56C348.923 371.532 347.337 373.007 345.965 374.537C344.592 376.079 343.423 377.701 342.267 379.239C339.979 382.309 337.559 385.018 334.735 386.438C333.347 387.14 331.883 387.556 330.535 387.536C329.19 387.546 327.973 387.277 326.955 386.868C325.933 386.458 325.112 385.898 324.497 385.315C323.89 384.719 323.505 384.102 323.265 383.577C322.814 382.509 322.877 381.885 322.877 381.885C322.95 381.869 322.975 382.487 323.473 383.476C323.736 383.961 324.131 384.525 324.73 385.065C325.336 385.592 326.133 386.092 327.116 386.45C329.054 387.169 331.824 387.353 334.437 385.87C337.086 384.472 339.386 381.835 341.617 378.754C342.744 377.213 343.908 375.554 345.303 373.95C346.698 372.36 348.343 370.784 350.44 369.71C352.532 368.616 355.029 368.242 357.48 368.396C359.943 368.548 362.385 369.128 364.854 369.657C367.324 370.196 369.842 370.642 372.437 370.55C375.026 370.445 377.663 369.944 380.187 368.983C385.221 367.081 389.869 363.402 392.599 358.364C395.311 353.336 396.135 347.476 395.095 342.19C394.853 340.862 394.48 339.581 394.011 338.338C393.755 337.722 393.529 337.084 393.251 336.525C392.964 335.95 392.631 335.395 392.286 334.851C390.852 332.704 389.05 330.863 387.085 329.349C383.158 326.268 378.59 324.573 374.271 323.554C373.176 323.344 372.116 323.046 371.045 322.919C369.975 322.782 368.925 322.648 367.896 322.517C365.82 322.372 363.845 322.278 361.913 322.214C358.069 322.085 354.534 321.729 351.617 320.575C350.176 320.01 348.866 319.134 348.193 317.876C347.878 317.247 347.745 316.574 347.758 315.941C347.799 315.313 347.924 314.729 348.124 314.213C348.947 312.149 350.166 310.923 350.933 310.101C351.73 309.298 352.216 308.946 352.239 308.974Z" fill="#FAFAFA"/>
<path d="M436.068 382.451C436.013 382.464 435.739 381.598 435.54 379.973C435.328 378.35 435.353 375.937 435.999 373.063C436.628 370.186 438.04 366.905 440.277 363.714C442.527 360.538 445.659 357.491 449.532 355.179C453.418 352.914 457.51 351.513 461.297 350.735C465.09 349.943 468.575 349.703 471.485 349.687C474.399 349.672 476.749 349.846 478.362 350.035C479.975 350.223 480.859 350.396 480.851 350.469C480.836 350.673 477.26 350.277 471.506 350.499C468.635 350.616 465.216 350.938 461.521 351.769C457.831 352.586 453.872 353.978 450.114 356.167C446.393 358.39 443.351 361.3 441.134 364.332C438.931 367.379 437.492 370.504 436.786 373.26C436.064 376.013 435.912 378.346 435.986 379.944C436.045 381.542 436.168 382.434 436.068 382.451Z" fill="#FAFAFA"/>
<path d="M496.284 401.607C496.339 401.648 495.911 402.361 494.989 403.545C494.071 404.731 492.6 406.348 490.551 408.098C488.507 409.85 485.834 411.679 482.606 413.215C479.384 414.753 475.587 415.943 471.484 416.459C467.376 416.935 463.403 416.681 459.908 415.954C456.407 415.231 453.375 414.091 450.973 412.874C448.566 411.662 446.753 410.441 445.579 409.507C444.403 408.576 443.817 407.987 443.861 407.934C443.994 407.75 446.513 409.947 451.322 412.141C456.069 414.343 463.355 416.279 471.348 415.319C479.337 414.35 485.952 410.737 490.039 407.47C494.186 404.195 496.112 401.461 496.284 401.607Z" fill="#FAFAFA"/>
<path d="M440.937 398.083C440.948 398.132 440.583 398.234 439.932 398.494C439.282 398.751 438.35 399.245 437.41 400.174C436.474 401.106 435.582 402.487 434.871 404.243C434.167 406.001 433.592 408.108 433.102 410.462C432.598 412.817 432.206 415.462 431.307 418.229C430.848 419.605 430.253 421.011 429.401 422.335C428.54 423.648 427.464 424.879 426.188 425.925C423.652 428.051 420.471 429.53 417.083 430.528C413.689 431.533 410.092 432.086 406.485 432.793C399.277 434.124 392.672 436.797 387.645 440.64C385.127 442.541 383.021 444.714 381.367 446.969C379.746 449.251 378.572 451.612 377.784 453.862C376.228 458.393 376.224 462.382 376.621 465.015C377.018 467.67 377.618 469.065 377.504 469.104C377.468 469.118 377.308 468.779 377.036 468.113C376.887 467.784 376.756 467.359 376.61 466.855C376.442 466.354 376.31 465.761 376.179 465.088C375.637 462.42 375.508 458.311 377.013 453.604C377.777 451.267 378.944 448.806 380.59 446.417C382.273 444.053 384.422 441.785 387.002 439.799C392.143 435.789 398.941 433.017 406.262 431.665C409.905 430.954 413.464 430.411 416.767 429.448C420.055 428.496 423.107 427.091 425.512 425.11C426.724 424.134 427.737 422.996 428.554 421.783C429.361 420.561 429.943 419.239 430.404 417.924C431.306 415.277 431.748 412.654 432.307 410.287C432.857 407.911 433.494 405.786 434.28 403.992C435.07 402.201 436.064 400.781 437.102 399.85C438.143 398.92 439.158 398.47 439.852 398.277C440.551 398.08 440.932 398.056 440.937 398.083Z" fill="#FAFAFA"/>
<path d="M411.406 393.486C411.45 393.465 411.859 394.222 411.979 395.74C412.105 397.233 411.778 399.551 410.22 401.838C409.438 402.957 408.361 404.087 406.901 404.85C406.187 405.259 405.366 405.52 404.512 405.719C403.648 405.863 402.739 405.936 401.82 405.83C399.983 405.641 398.122 404.913 396.529 403.689C394.952 402.462 393.637 400.688 393.116 398.579C392.786 397.235 392.759 395.835 393.063 394.518C393.351 393.186 394.084 392.013 394.821 391.063C395.567 390.087 396.363 389.197 397.24 388.422C397.675 388.033 398.136 387.676 398.642 387.374C399.146 387.081 399.691 386.803 400.37 386.77L400.517 387.754C400.329 387.801 400.15 387.845 399.972 387.891L399.698 386.942C401.918 386.304 404.091 386.589 405.772 387.271C407.484 387.923 408.74 388.964 409.604 389.921C410.467 390.895 410.929 391.818 411.172 392.458C411.394 393.112 411.45 393.473 411.406 393.486C411.258 393.554 410.928 392.064 409.184 390.318C408.313 389.475 407.093 388.567 405.488 388.03C403.913 387.459 401.934 387.277 399.992 387.884L399.718 386.934C399.895 386.886 400.073 386.837 400.261 386.785L400.408 387.769C399.632 387.843 398.723 388.502 397.947 389.212C397.151 389.937 396.4 390.799 395.707 391.727C395 392.667 394.412 393.635 394.171 394.772C393.916 395.9 393.939 397.123 394.229 398.301C394.681 400.128 395.819 401.69 397.221 402.802C398.635 403.907 400.301 404.582 401.936 404.778C402.754 404.887 403.558 404.834 404.326 404.726C405.082 404.564 405.815 404.357 406.46 404.006C407.783 403.362 408.799 402.367 409.561 401.364C411.08 399.313 411.521 397.172 411.533 395.75C411.554 394.308 411.301 393.513 411.406 393.486Z" fill="#FAFAFA"/>
<path d="M340.302 357.491C340.312 357.492 340.315 357.592 340.312 357.787C340.304 358.015 340.295 358.3 340.284 358.652C340.245 359.456 340.191 360.568 340.121 361.976C339.949 364.86 339.776 369.037 339.546 374.198C339.114 384.521 338.692 398.788 338.358 414.549C338.02 430.315 337.814 444.591 337.666 454.923C337.588 460.055 337.525 464.224 337.48 467.158C337.45 468.568 337.426 469.681 337.408 470.485C337.395 470.838 337.385 471.122 337.376 471.35C337.366 471.546 337.355 471.646 337.345 471.645C337.335 471.645 337.326 471.544 337.317 471.35C337.31 471.122 337.302 470.838 337.292 470.485C337.284 469.681 337.272 468.568 337.256 467.158C337.257 464.223 337.258 460.054 337.259 454.92C337.303 444.585 337.446 430.308 337.784 414.538C338.118 398.774 338.604 384.503 339.141 374.181C339.423 369.02 339.657 364.844 339.898 361.963C340.012 360.557 340.103 359.448 340.169 358.646C340.203 358.294 340.232 358.011 340.254 357.784C340.276 357.59 340.292 357.491 340.302 357.491Z" fill="#263238"/>
<g opacity="0.2">
<path d="M319.239 459.958C325.385 462.898 333.426 457.249 336.566 451.203C336.566 451.203 338.207 437.873 337.979 431.063C337.556 418.455 338.477 405.972 338.053 393.364C337.102 400.864 333.937 408.07 329.056 413.844C327.707 415.44 326.179 417.023 325.675 419.052C324.774 422.685 327.551 429.228 329.335 432.518C334.798 442.589 322.834 460.028 319.637 459.701" fill="black"/>
</g>
<g opacity="0.2">
<path d="M434.317 377.695C436.33 402.822 438.344 427.949 440.357 453.076C440.546 455.45 440.748 457.871 441.682 460.06C442.614 462.251 444.422 464.211 446.755 464.686C450.327 465.413 453.789 462.341 454.798 458.837C455.806 455.334 455.001 451.592 454.124 448.054C452.63 442.026 450.935 436.051 449.24 430.077C444.323 412.745 439.405 395.414 434.488 378.082" fill="black"/>
</g>
<path d="M365.252 506.397C365.127 506.327 366.299 505.137 366.928 502.396C367.552 499.678 367.161 495.469 365.054 490.908C364.014 488.631 362.549 486.266 361.072 483.659C359.611 481.053 358.062 478.152 357.341 474.754C356.598 471.354 357.023 467.62 358.121 464.09C359.2 460.538 360.811 457.088 362.111 453.475C364.868 446.31 364.727 438.669 362.66 432.399C361.644 429.252 360.182 426.437 358.483 424.037C356.767 421.647 354.835 419.667 352.911 418.06C349.021 414.867 345.223 413.188 342.563 412.289C339.886 411.392 338.324 411.15 338.344 411.045C338.35 411.006 338.743 411.041 339.488 411.145C340.23 411.253 341.325 411.461 342.698 411.863C345.436 412.643 349.365 414.238 353.421 417.429C355.428 419.036 357.45 421.037 359.254 423.481C361.042 425.933 362.587 428.827 363.665 432.071C364.738 435.312 365.359 438.891 365.321 442.613C365.331 446.333 364.546 450.192 363.19 453.863C361.865 457.543 360.257 460.973 359.197 464.419C358.117 467.849 357.71 471.34 358.377 474.541C359.025 477.75 360.487 480.592 361.904 483.195C363.334 485.804 364.77 488.205 365.796 490.577C367.867 495.303 368.152 499.699 367.364 502.498C366.993 503.907 366.406 504.885 366.005 505.521C365.543 506.126 365.282 506.42 365.252 506.397Z" fill="#FAFAFA"/>
<path d="M468.7 325.107C468.756 325.131 468.49 325.971 467.631 327.301C466.784 328.626 465.238 330.395 462.847 331.943C460.477 333.502 457.203 334.74 453.452 335.051C449.703 335.385 445.548 334.825 441.449 333.519C437.349 332.221 433.613 330.178 430.973 327.438C429.662 326.079 428.606 324.577 427.919 323.026C427.233 321.479 426.864 319.933 426.732 318.508C426.468 315.642 427.18 313.325 427.956 311.95C428.135 311.594 428.335 311.303 428.515 311.055C428.682 310.8 428.847 310.602 428.994 310.453C429.277 310.147 429.437 310.002 429.468 310.028C429.553 310.095 428.979 310.755 428.358 312.147C427.737 313.522 427.191 315.731 427.54 318.421C427.714 319.758 428.107 321.199 428.783 322.627C429.457 324.052 430.47 325.432 431.727 326.697C434.25 329.237 437.823 331.169 441.797 332.426C445.778 333.693 449.778 334.26 453.368 333.996C456.964 333.753 460.091 332.66 462.419 331.254C464.761 329.858 466.336 328.248 467.269 327.04C468.212 325.83 468.613 325.063 468.7 325.107Z" fill="#FAFAFA"/>
<path d="M453.615 443.651C453.605 443.653 453.567 443.548 453.499 443.341C453.425 443.102 453.33 442.798 453.212 442.418C452.961 441.564 452.61 440.37 452.164 438.852C451.267 435.709 449.988 431.228 448.413 425.709C445.289 414.562 440.992 399.228 436.245 382.29C433.892 373.804 431.652 365.722 429.613 358.365C428.603 354.684 427.721 351.147 427.265 347.764C426.803 344.386 426.775 341.171 427.237 338.295C428.191 332.513 431.031 328.409 433.47 326.303C434.694 325.227 435.813 324.622 436.564 324.224C436.932 324.068 437.226 323.943 437.457 323.846C437.659 323.764 437.764 323.728 437.769 323.737C437.823 323.821 436.025 324.322 433.62 326.47C431.261 328.595 428.526 332.666 427.638 338.359C427.21 341.188 427.259 344.359 427.738 347.699C428.209 351.043 429.101 354.554 430.124 358.225C432.177 365.579 434.432 373.656 436.799 382.137C441.482 399.092 445.723 414.443 448.805 425.601C450.307 431.141 451.526 435.638 452.381 438.793C452.783 440.324 453.1 441.527 453.326 442.388C453.421 442.775 453.497 443.084 453.557 443.327C453.604 443.538 453.625 443.649 453.615 443.651Z" fill="#263238"/>
<path d="M408.737 199.613C408.662 199.605 408.939 198.763 408.747 197.254C408.559 195.771 407.72 193.6 405.7 191.781C403.739 189.911 400.509 188.794 396.926 188.884C393.32 188.913 389.488 190.098 385.526 191.433C383.535 192.088 381.573 192.714 379.625 193.145C377.675 193.566 375.755 193.793 373.925 193.838C370.257 193.948 366.973 193.351 364.324 192.575C361.676 191.77 359.654 190.787 358.315 190.028C357.64 189.654 357.139 189.326 356.805 189.095C356.469 188.868 356.299 188.742 356.31 188.724C356.342 188.673 357.053 189.14 358.421 189.83C359.783 190.523 361.809 191.439 364.437 192.185C367.065 192.902 370.304 193.447 373.909 193.309C375.708 193.251 377.589 193.017 379.501 192.596C381.414 192.165 383.356 191.543 385.345 190.888C389.3 189.556 393.213 188.357 396.918 188.355C400.596 188.287 403.97 189.495 405.975 191.483C408.035 193.412 408.843 195.692 408.968 197.229C409.095 198.794 408.737 199.613 408.737 199.613Z" fill="#455A64"/>
<path d="M423.891 232.55C423.873 232.558 423.785 232.417 423.634 232.14C423.478 231.864 423.274 231.445 423.028 230.898C422.54 229.801 421.931 228.161 421.475 226.053C421.032 223.948 420.752 221.37 420.973 218.519C421.152 215.655 422.043 212.632 422.712 209.465C423.405 206.309 423.566 203.165 422.729 200.508C422.328 199.187 421.675 198.025 420.863 197.114C420.045 196.222 419.044 195.613 418.062 195.278C416.079 194.579 414.289 194.894 413.252 195.4C412.205 195.935 411.804 196.499 411.756 196.449C411.756 196.449 412.085 195.827 413.15 195.202C414.203 194.609 416.083 194.207 418.192 194.893C419.237 195.223 420.317 195.845 421.214 196.794C422.091 197.745 422.799 198.969 423.234 200.35C424.139 203.12 423.976 206.39 423.274 209.583C422.595 212.791 421.702 215.766 421.499 218.563C421.255 221.354 421.486 223.89 421.873 225.974C422.272 228.06 422.814 229.7 423.234 230.814C423.655 231.928 423.937 232.528 423.891 232.55Z" fill="#455A64"/>
<path d="M410.609 198.039C410.589 198.037 410.593 197.768 410.616 197.257C410.637 196.688 410.665 195.946 410.7 195.022C410.72 193.096 410.782 190.237 409.8 186.927C409.297 185.291 408.475 183.561 407.196 182.011C405.931 180.465 404.152 179.114 401.971 178.559C399.801 177.967 397.36 178.175 394.997 178.844C392.616 179.515 390.324 180.702 388.022 182.006C385.718 183.306 383.463 184.631 381.107 185.564C378.741 186.473 376.306 186.95 373.979 186.996C371.654 187.048 369.441 186.749 367.452 186.195C365.464 185.63 363.692 184.861 362.157 184.013C359.107 182.261 357.084 180.193 355.888 178.66C355.27 177.901 354.873 177.254 354.616 176.808C354.352 176.367 354.221 176.132 354.239 176.122C354.257 176.112 354.42 176.328 354.713 176.746C354.998 177.17 355.423 177.791 356.061 178.52C357.298 179.993 359.333 181.982 362.354 183.658C363.875 184.469 365.623 185.201 367.577 185.735C369.532 186.26 371.697 186.533 373.966 186.468C376.237 186.408 378.597 185.935 380.9 185.043C383.201 184.125 385.429 182.813 387.742 181.507C390.049 180.201 392.394 178.989 394.845 178.304C397.277 177.623 399.822 177.411 402.109 178.049C404.41 178.65 406.271 180.094 407.565 181.711C408.876 183.334 409.698 185.125 410.189 186.812C411.142 190.215 411.01 193.099 410.923 195.031C410.865 196.004 410.789 196.756 410.731 197.265C410.671 197.774 410.628 198.04 410.609 198.039Z" fill="#455A64"/>
<path d="M381.501 473.587L463.912 461.296L462.581 453.966H506.936L508.236 465.241C512.254 486.133 496.369 505.562 475.095 505.778L378.977 504.711L381.501 473.587Z" fill="#D29E89"/>
<path d="M387.448 475.005C387.007 475.151 381.455 472.663 376.483 470.362C371.203 467.92 365.412 466.795 359.603 467.09L336.69 468.255C336.69 468.255 338.105 472.036 340.535 473.379C342.965 474.724 357.209 475.011 357.209 475.011L356.479 475.762C353.477 478.853 349.383 480.645 345.075 480.753L342.886 480.808C341.262 480.679 339.657 480.366 338.104 479.873L332.453 477.589C330.742 476.817 328.936 476.943 328.192 478.666C327.519 480.224 328.013 482.369 332.678 484.72C335.287 486.033 344.957 489.377 344.957 489.377C344.957 489.377 345.098 492.05 345.52 493.458C345.942 494.865 349.742 496.272 349.742 496.272C349.742 496.272 352.134 501.198 353.119 502.323C353.561 502.828 357.002 503.898 360.663 504.926C366.574 506.586 372.834 506.546 378.717 504.79L387.449 502.182V475.585" fill="#D29E89"/>
<path d="M356.106 492.382C356.095 492.53 353.377 492.39 350.148 491.533C346.914 490.689 344.481 489.475 344.544 489.34C344.61 489.185 347.109 490.147 350.295 490.978C353.474 491.821 356.125 492.213 356.106 492.382Z" fill="#AA6550"/>
<path d="M355.299 497.748C355.301 497.899 353.821 497.992 352.077 497.514C350.331 497.045 349.102 496.214 349.179 496.085C349.257 495.938 350.555 496.512 352.227 496.96C353.897 497.419 355.307 497.581 355.299 497.748Z" fill="#AA6550"/>
<path d="M485.682 480.517C485.578 480.555 485.031 478.923 483.709 476.509C483.057 475.297 482.164 473.922 481.07 472.473C479.951 471.045 478.616 469.555 477.066 468.147C475.498 466.756 473.873 465.589 472.333 464.629C470.774 463.698 469.311 462.956 468.037 462.439C465.495 461.385 463.813 461.017 463.841 460.909C463.849 460.87 464.272 460.942 465.033 461.106C465.415 461.182 465.879 461.291 466.405 461.464C466.932 461.63 467.544 461.792 468.187 462.062C469.498 462.539 471.005 463.253 472.605 464.176C474.187 465.127 475.852 466.303 477.449 467.72C479.03 469.155 480.377 470.683 481.493 472.155C482.581 473.646 483.454 475.067 484.068 476.319C484.405 476.93 484.632 477.52 484.855 478.027C485.083 478.531 485.242 478.98 485.358 479.353C485.603 480.091 485.72 480.503 485.682 480.517Z" fill="#AA6550"/>
<path d="M359.485 472.944C359.535 472.996 358.88 473.737 357.715 474.833C356.546 475.92 354.852 477.371 352.723 478.613C350.592 479.854 348.444 480.552 346.872 480.871C345.295 481.191 344.3 481.215 344.293 481.15C344.239 480.941 348.264 480.572 352.435 478.116C354.51 476.906 356.218 475.529 357.447 474.528C358.673 473.519 359.426 472.882 359.485 472.944Z" fill="#AA6550"/>
<path d="M122.407 446.779C124.372 446.779 107.398 492.376 103.028 504.023C102.544 505.313 102.206 506.448 102.206 506.448L221.027 506.653L219.626 396.097C219.625 396.024 219.621 395.952 219.611 395.879L209.673 316.797C209.575 316.013 209.016 315.366 208.253 315.159C203.548 313.883 186.595 309.508 173.624 309.027C158.418 308.464 136.43 311.48 136.43 311.48C136.43 311.48 116.7 313.516 105.84 317.432C104.969 317.746 104.439 318.623 104.567 319.541L122.407 446.779Z" fill="#E8505B"/>
<path d="M177.281 397.776C177.317 397.792 177.104 398.301 176.686 399.211C176.484 399.671 176.218 400.223 175.85 400.834C175.49 401.447 175.118 402.171 174.59 402.898C174.092 403.644 173.535 404.455 172.854 405.263C172.219 406.109 171.432 406.919 170.627 407.791C168.95 409.471 166.955 411.174 164.668 412.691C162.363 414.181 160.004 415.33 157.793 416.195C156.671 416.586 155.614 416.983 154.585 417.227C153.572 417.528 152.606 417.714 151.723 417.873C150.846 418.067 150.034 418.118 149.327 418.203C148.621 418.297 148.008 418.319 147.507 418.321C146.505 418.341 145.954 418.333 145.953 418.294C145.947 418.167 148.168 418.181 151.646 417.475C152.514 417.293 153.462 417.087 154.455 416.77C155.464 416.51 156.501 416.101 157.601 415.703C159.769 414.822 162.083 413.679 164.353 412.212C166.605 410.717 168.577 409.055 170.25 407.419C171.055 406.57 171.844 405.784 172.485 404.962C173.173 404.178 173.741 403.391 174.254 402.668C176.292 399.761 177.167 397.719 177.281 397.776Z" fill="#263238"/>
<g opacity="0.2">
<path d="M106.24 495.406C117.485 500.179 130.444 498.318 140.33 491.142C144.614 488.031 148.21 483.965 152.833 481.385C159.244 477.807 166.888 477.469 174.212 476.945C184.015 476.245 193.894 475.043 203.11 471.629C204.977 470.937 206.886 470.103 208.162 468.574C209.438 467.046 209.866 464.632 208.62 463.079C207.347 461.491 205.004 461.402 202.97 461.462C172.241 462.368 144.164 464.832 114.254 471.939" fill="black"/>
</g>
<path d="M139.357 195.285C148.854 185.616 163.842 179.908 176.258 185.341C184.606 188.994 190.269 196.828 197.596 202.244C202.932 206.189 209.525 209.237 212.322 215.257C214.787 220.563 213.598 226.737 213.003 232.558C212.408 238.378 212.825 245.091 217.333 248.821C219.7 250.78 222.812 251.553 225.478 253.08C230.844 256.155 234.032 262.138 235.181 268.214C236.33 274.291 235.71 280.546 235.086 286.698L209.511 291.571L205.31 284.505L203.846 295.613L171.207 298.559L139.357 195.285Z" fill="#263238"/>
<path d="M135.138 205.841L135.083 212.957L133.071 319.636C132.896 332.001 144.727 342.53 157.968 342.616C171.341 342.703 176.796 332.656 177.179 320.168C177.582 307.06 178.245 293.268 178.245 293.268C178.245 293.268 195.21 290.93 199.316 268.994C201.358 258.085 201.303 240.104 200.783 225.392C200.315 212.151 188.928 201.963 175.718 202.994L135.138 205.841Z" fill="#FFBE9D"/>
<path d="M194.97 239.564C194.982 241.057 193.726 242.299 192.167 242.339C190.61 242.38 189.336 241.206 189.325 239.711C189.314 238.218 190.568 236.975 192.125 236.934C193.684 236.892 194.959 238.069 194.97 239.564Z" fill="#263238"/>
<path d="M196.626 234.631C196.266 234.989 194.169 233.346 191.127 233.271C188.091 233.152 185.817 234.654 185.497 234.273C185.34 234.103 185.714 233.448 186.706 232.767C187.682 232.089 189.332 231.449 191.226 231.509C193.12 231.572 194.694 232.312 195.59 233.052C196.505 233.795 196.804 234.47 196.626 234.631Z" fill="#263238"/>
<path d="M165.018 239.564C165.03 241.057 163.774 242.299 162.214 242.34C160.657 242.38 159.383 241.206 159.372 239.711C159.36 238.218 160.615 236.974 162.173 236.933C163.732 236.892 165.006 238.069 165.018 239.564Z" fill="#263238"/>
<path d="M166.723 234.374C166.361 234.733 164.262 233.091 161.224 233.014C158.188 232.895 155.912 234.397 155.592 234.016C155.436 233.848 155.807 233.192 156.802 232.511C157.778 231.832 159.428 231.193 161.322 231.252C163.216 231.315 164.79 232.057 165.687 232.795C166.598 233.539 166.899 234.213 166.723 234.374Z" fill="#263238"/>
<path d="M177.135 257.228C177.125 257.055 179.025 256.781 182.099 256.474C182.877 256.415 183.616 256.281 183.762 255.754C183.96 255.197 183.658 254.352 183.307 253.439C182.629 251.54 181.919 249.55 181.173 247.464C178.216 238.957 176.099 231.972 176.442 231.856C176.786 231.74 179.462 238.54 182.418 247.046C183.128 249.143 183.808 251.142 184.454 253.054C184.724 253.944 185.201 254.959 184.773 256.112C184.548 256.686 183.967 257.092 183.465 257.212C182.963 257.35 182.526 257.346 182.142 257.358C179.055 257.44 177.142 257.401 177.135 257.228Z" fill="#263238"/>
<path d="M178.244 293.269C178.244 293.269 163.395 293.815 148.953 284.583C148.953 284.583 155.694 299.916 177.803 298.462L178.244 293.269Z" fill="#EB996E"/>
<path d="M175.648 264.521C174.594 263.045 172.7 262.198 170.792 262.351C169.469 262.457 168.118 263.056 167.287 264.108C166.456 265.161 166.245 266.682 166.946 267.726C167.734 268.902 169.442 269.216 170.905 268.844C172.368 268.471 173.643 267.55 174.855 266.631C175.19 266.376 175.534 266.111 175.749 265.756C175.964 265.401 176.02 264.929 175.775 264.624" fill="#EB996E"/>
<path d="M168.129 259.086C168.625 259.07 168.54 262.371 171.3 264.792C174.055 267.219 177.584 266.946 177.597 267.409C177.638 267.616 176.796 268.028 175.31 268.027C173.852 268.037 171.738 267.51 170.049 266.03C168.366 264.546 167.677 262.609 167.602 261.251C167.513 259.867 167.904 259.06 168.129 259.086Z" fill="#263238"/>
<path d="M167.688 225.53C167.365 226.348 164.34 225.872 160.761 226.204C157.175 226.464 154.269 227.428 153.816 226.675C153.614 226.314 154.138 225.551 155.322 224.781C156.497 224.014 158.358 223.306 160.506 223.125C162.654 222.95 164.606 223.344 165.891 223.909C167.186 224.473 167.828 225.141 167.688 225.53Z" fill="#263238"/>
<path d="M196.74 228.488C196.07 229.16 193.54 228.374 190.475 228.256C187.415 228.048 184.801 228.563 184.223 227.825C183.971 227.467 184.399 226.786 185.552 226.164C186.687 225.542 188.571 225.062 190.677 225.173C192.782 225.287 194.59 225.962 195.637 226.7C196.7 227.438 197.037 228.159 196.74 228.488Z" fill="#263238"/>
<path d="M112.398 315.416C112.398 315.416 76.9591 323.731 70.0859 357.338C66.9276 372.78 62.5019 461.449 83.1578 475.223C109.819 493.002 143.707 476.823 143.707 476.823L139.355 433.935H117.352L114.383 386.949C115.212 390.553 112.398 315.416 112.398 315.416Z" fill="#E8505B"/>
<path d="M238.472 463.023C245.341 462.319 251.896 458.905 256.411 453.679C260.926 448.453 263.354 441.473 263.055 434.574L248.581 373.058C248.581 373.058 239.194 320.265 209.511 315.507L219.624 395.988L218.66 412.948C218.66 412.948 219.119 424.168 220.26 445.19L238.472 463.023Z" fill="#E8505B"/>
<path d="M242.312 424.527C242.314 424.652 240.22 424.428 236.968 425.114C233.749 425.769 229.338 427.578 225.789 431.193C222.244 434.818 220.529 439.265 219.939 442.498C219.321 445.763 219.588 447.851 219.463 447.851C219.431 447.854 219.343 447.341 219.294 446.402C219.243 445.463 219.277 444.093 219.54 442.426C220.036 439.118 221.733 434.52 225.38 430.791C229.032 427.07 233.593 425.279 236.89 424.715C238.552 424.417 239.921 424.354 240.859 424.387C241.799 424.418 242.314 424.495 242.312 424.527Z" fill="#263238"/>
<path d="M150.875 192.826C154.866 198.184 156.763 202.3 159.155 211.828C160.327 216.495 156.532 219.79 152.763 222.64C150.997 223.976 148.443 223.042 147.96 220.881C147.96 220.881 149.269 235.483 143.989 242.029C141.514 245.098 141.41 249.034 141.997 252.351C142.596 255.738 144.342 258.787 146.712 261.28C152.833 267.716 154.533 278.213 150.31 286.105C149.229 288.126 147.818 289.977 146.955 292.1C146.461 293.316 146.172 294.674 146.252 295.976C146.349 297.583 145.242 299.005 143.649 299.237C125.533 301.865 107.118 302.419 88.8773 300.883C87.5934 300.775 86.4925 299.866 86.1961 298.613C84.7668 292.563 87.1504 285.965 90.2085 280.394C93.6236 274.172 97.971 268.202 99.1457 261.203C100.252 254.617 98.4536 247.514 101.1 241.382C104.347 233.855 113.175 230.297 117.595 223.393C121.765 216.879 121.43 208.337 125.166 201.565C129.964 192.871 141.773 188.856 150.875 192.826Z" fill="#263238"/>
<path d="M151.892 200.914C158.822 204.477 162.025 212.953 168.757 216.877C174.888 220.451 182.54 219.507 189.558 218.453C189.298 216.896 189.037 215.339 188.777 213.782C189.488 215.148 190.223 216.545 191.378 217.563C192.533 218.58 194.215 219.148 195.643 218.573C197.997 217.624 198.31 214.385 197.706 211.92C196.738 207.972 194.432 204.44 191.58 201.542C186.397 196.278 179.281 192.959 171.916 192.371C164.552 191.782 157 193.929 151.044 198.303" fill="#263238"/>
<path d="M216.878 357.784C216.898 357.784 216.92 358.082 216.943 358.65C216.962 359.271 216.987 360.098 217.019 361.133C217.062 363.288 217.17 366.407 217.334 370.257C217.65 377.96 218.37 388.588 219.238 400.323C220.107 412.063 220.762 422.706 220.975 430.421C221.088 434.278 221.134 437.4 221.108 439.558C221.095 440.594 221.084 441.42 221.076 442.042C221.063 442.609 221.046 442.908 221.026 442.908C221.006 442.908 220.984 442.609 220.96 442.042C220.941 441.42 220.916 440.595 220.884 439.56C220.841 437.404 220.733 434.287 220.568 430.435C220.252 422.732 219.533 412.105 218.664 400.364C217.797 388.629 217.14 377.987 216.927 370.272C216.815 366.415 216.769 363.293 216.794 361.134C216.807 360.098 216.818 359.271 216.826 358.649C216.842 358.081 216.858 357.784 216.878 357.784Z" fill="#263238"/>
<path d="M117.353 433.934C117.333 433.934 117.307 433.723 117.274 433.318C117.243 432.85 117.205 432.265 117.159 431.55C117.069 429.933 116.946 427.729 116.796 425.042C116.483 419.548 116.001 411.962 115.429 403.584C114.849 395.241 114.323 387.691 113.937 382.128C113.76 379.443 113.615 377.24 113.509 375.624C113.473 374.908 113.442 374.323 113.418 373.853C113.403 373.448 113.404 373.234 113.424 373.233C113.444 373.232 113.482 373.441 113.533 373.843C113.586 374.31 113.651 374.893 113.732 375.606C113.883 377.219 114.09 379.416 114.341 382.096C114.824 387.58 115.43 395.162 116.001 403.546C116.574 411.925 116.991 419.521 117.201 425.024C117.298 427.775 117.37 430.002 117.382 431.542C117.385 432.259 117.387 432.847 117.389 433.315C117.385 433.721 117.373 433.934 117.353 433.934Z" fill="#263238"/>
<path d="M117.353 433.934C117.363 434.037 116.202 434.087 114.468 434.672C112.747 435.241 110.448 436.47 108.655 438.594C106.864 440.722 106.042 443.196 105.773 444.989C105.49 446.798 105.636 447.949 105.534 447.957C105.499 447.961 105.424 447.68 105.363 447.159C105.301 446.638 105.277 445.874 105.371 444.936C105.543 443.074 106.336 440.459 108.216 438.225C110.098 435.995 112.542 434.77 114.348 434.286C115.257 434.034 116.013 433.928 116.537 433.902C117.061 433.873 117.351 433.899 117.353 433.934Z" fill="#263238"/>
<path d="M143.709 476.823C143.689 476.825 143.646 476.592 143.582 476.144C143.516 475.636 143.432 474.988 143.33 474.187C143.127 472.412 142.848 469.968 142.506 466.98C141.859 460.823 140.98 452.441 140.007 443.18C139.684 439.961 139.372 436.85 139.082 433.962L139.357 434.21C132.292 434.169 126.171 434.134 121.733 434.108C119.603 434.075 117.881 434.048 116.616 434.028C116.065 434.009 115.613 433.995 115.248 433.983C114.938 433.967 114.776 433.951 114.776 433.934C114.776 433.918 114.938 433.902 115.248 433.886C115.614 433.874 116.065 433.858 116.616 433.841C117.882 433.821 119.605 433.793 121.733 433.76C126.171 433.735 132.292 433.7 139.357 433.659L139.606 433.658L139.631 433.908C139.928 436.795 140.247 439.906 140.578 443.124C141.485 452.392 142.307 460.78 142.91 466.94C143.175 469.937 143.393 472.386 143.551 474.166C143.611 474.971 143.659 475.623 143.697 476.133C143.724 476.584 143.728 476.821 143.709 476.823Z" fill="#263238"/>
<path d="M143.708 476.823C143.714 476.842 143.427 476.948 142.876 477.131C142.272 477.323 141.468 477.58 140.458 477.902C138.352 478.554 135.3 479.486 131.488 480.503C127.678 481.512 123.094 482.605 117.916 483.322C112.732 484.123 106.876 483.81 100.984 482.519C98.0305 481.883 95.194 481.065 92.5062 480.13C91.1662 479.653 89.857 479.162 88.593 478.635C87.9626 478.367 87.3334 478.123 86.7328 477.798L85.8292 477.342L84.9894 476.801C82.7722 475.346 81.0454 473.473 79.6745 471.589C78.3014 469.696 77.2611 467.781 76.4016 466C74.7144 462.418 73.727 459.37 73.0691 457.266C72.7473 456.211 72.506 455.389 72.3572 454.828C72.2051 454.268 72.1346 453.971 72.1533 453.965C72.1721 453.96 72.2801 454.245 72.4674 454.794C72.6702 455.394 72.9413 456.194 73.2807 457.196C74.0025 459.274 75.0461 462.293 76.7663 465.823C77.6424 467.576 78.6926 469.457 80.058 471.306C81.4223 473.147 83.1238 474.962 85.2782 476.357L86.0936 476.876L86.9686 477.311C87.5428 477.62 88.1753 477.862 88.8013 478.125C90.0575 478.642 91.359 479.125 92.6902 479.596C95.3604 480.516 98.176 481.325 101.103 481.955C106.951 483.233 112.712 483.557 117.844 482.795C122.995 482.113 127.571 481.065 131.386 480.107C135.202 479.142 138.269 478.271 140.394 477.685C141.416 477.406 142.231 477.183 142.842 477.017C143.405 476.873 143.703 476.804 143.708 476.823Z" fill="#263238"/>
<path d="M125.009 218.939C127.273 213.828 125.817 207.401 121.787 203.526C117.757 199.651 111.499 198.414 106.183 200.146C103.805 200.921 101.559 202.286 100.092 204.312C97.3903 208.044 97.917 213.532 100.711 217.195C103.504 220.858 108.158 222.795 112.758 223.05C117.357 223.305 121.923 222.043 126.178 220.273" fill="#263238"/>
<path d="M161.654 393.718C169.362 400.078 187.499 415.13 187.499 415.13L197.656 413.322L166.889 387.439C165.236 386.048 162.787 386.184 161.297 387.747C159.662 389.467 159.825 392.209 161.654 393.718Z" fill="#455A64"/>
<path d="M160.84 390.413L156.845 386.807C156.064 386.102 155.982 384.905 156.661 384.101C157.376 383.254 158.654 383.171 159.471 383.92L163.314 387.441L160.84 390.413Z" fill="#455A64"/>
<path d="M172.727 392.351C172.843 392.46 171.734 393.817 170.252 395.382C168.77 396.948 167.475 398.128 167.359 398.019C167.245 397.91 168.352 396.553 169.835 394.988C171.318 393.423 172.613 392.243 172.727 392.351Z" fill="#263238"/>
<path d="M173.036 405.026C172.992 405.087 171.804 404.345 169.966 403.019C168.129 401.694 165.651 399.777 163.044 397.506C161.752 396.387 160.443 395.239 159.805 393.776C159.165 392.324 159.274 390.814 159.702 389.728C160.13 388.623 160.826 387.928 161.332 387.538C161.849 387.148 162.192 387.032 162.207 387.061C162.23 387.1 161.928 387.283 161.476 387.708C161.034 388.132 160.43 388.829 160.083 389.865C159.735 390.883 159.685 392.264 160.287 393.558C160.882 394.865 162.122 395.951 163.421 397.072C166.016 399.334 168.442 401.292 170.21 402.695C171.98 404.099 173.084 404.958 173.036 405.026Z" fill="#263238"/>
<path d="M139.705 437.37C147.012 434.914 154.777 436.567 162.084 434.113C164.534 433.29 167.058 432.426 168.99 430.709C171.31 428.646 172.492 425.617 174.342 423.125C179.873 415.677 190.206 414.133 199.436 413.187C201.59 412.967 203.797 412.75 205.898 413.28C207.998 413.81 210.005 415.247 210.595 417.332C211.184 419.416 209.837 422.018 207.682 422.234C209.704 422.323 211.12 424.377 211.492 426.366C211.863 428.356 211.533 430.417 211.8 432.423C212.176 435.242 213.718 437.88 213.628 440.722C213.506 444.612 210.282 447.815 206.689 449.313C203.097 450.811 199.122 451.005 195.267 451.547C176.344 454.209 161.951 464.954 143.706 473.07" fill="#FFBE9D"/>
<path d="M211.671 428.976C212.295 430.277 214.215 430.568 215.399 429.744C216.583 428.919 217.038 427.319 216.83 425.892C216.62 424.465 215.854 423.181 215.005 422.016C213.453 419.889 211.576 418.024 209.71 416.168L203.847 421.076L211.671 428.976Z" fill="#FFBE9D"/>
<path d="M209.511 422.568C209.501 422.749 205.919 422.455 201.584 423.126C197.242 423.765 193.909 425.103 193.846 424.934C193.818 424.868 194.617 424.448 195.985 423.947C197.35 423.445 199.296 422.894 201.499 422.559C203.701 422.228 205.723 422.181 207.177 422.257C208.63 422.333 209.517 422.498 209.511 422.568Z" fill="#EB996E"/>
<path d="M212.092 434.05C212.058 434.225 209.078 433.613 205.365 433.719C201.652 433.797 198.705 434.555 198.663 434.383C198.611 434.253 201.55 433.227 205.351 433.146C209.151 433.039 212.137 433.917 212.092 434.05Z" fill="#EB996E"/>
<path d="M211.471 430.656C211.378 430.646 211.468 429.794 211.31 428.449C211.148 427.114 210.664 425.268 209.534 423.553C209.3 423.187 209.038 422.85 208.782 422.533L208.615 422.328L208.799 422.147C210.019 420.948 210.362 419.337 210.323 418.27C210.296 417.175 209.994 416.546 210.079 416.513C210.118 416.483 210.558 417.074 210.695 418.246C210.838 419.381 210.556 421.175 209.196 422.552L209.214 422.167C209.489 422.499 209.768 422.854 210.016 423.241C211.209 425.053 211.652 427.021 211.715 428.414C211.771 429.822 211.533 430.668 211.471 430.656Z" fill="#EB996E"/>
<path d="M211.678 428.348L221.292 437.369L222.52 442.727L213.63 440.721C212.358 436.195 211.418 431.886 211.678 428.348Z" fill="#455A64"/>
<path d="M198.663 439.839C198.467 440.191 146.79 465.67 146.79 465.67V471.15L199.525 443.719L264.958 441.249V437.369L198.663 439.839Z" fill="#F5F5F5"/>
<path d="M146.79 471.938C147.151 471.692 203.846 466.58 203.846 466.58L264.958 441.25L199.525 443.719L146.79 471.15V471.938Z" fill="#263238"/>
<path d="M201.074 458.368C200.614 455.399 203.458 452.854 206.356 452.061C209.253 451.267 212.354 451.581 215.283 450.915C217.164 450.487 218.928 449.665 220.729 448.974C229.767 445.506 239.682 445.326 249.361 445.191C250.56 447.774 249.566 451.171 247.166 452.702C248.051 455.016 247.781 457.657 246.866 459.96C245.952 462.263 244.439 464.278 242.829 466.162C241.468 467.755 239.969 469.32 238.051 470.166C236.147 471.006 234.003 471.064 231.921 471.108C225.428 471.246 218.462 471.25 213.092 467.599C208.919 464.762 206.023 459.895 201.186 458.456C201.569 458.471 201.951 458.487 202.333 458.501" fill="#FFBE9D"/>
<path d="M244.385 454.766C244.385 454.806 243.943 454.845 243.142 454.884C242.217 454.914 241.086 454.949 239.751 454.992C236.888 455.058 232.933 455.11 228.564 455.132C226.384 455.133 224.309 455.133 222.398 455.134C221.443 455.115 220.505 455.02 219.674 454.717C218.842 454.411 218.15 453.902 217.703 453.282C217.252 452.669 217.081 451.932 217.189 451.33C217.286 450.728 217.573 450.268 217.873 449.974C218.509 449.377 219.058 449.475 219.035 449.49C219.057 449.549 218.551 449.547 218.035 450.127C217.53 450.662 217.141 451.951 218.029 453.038C218.437 453.568 219.075 454.011 219.829 454.266C220.593 454.523 221.471 454.6 222.405 454.604C224.311 454.59 226.384 454.573 228.559 454.557C232.928 454.535 236.884 454.548 239.747 454.585C241.081 454.614 242.214 454.639 243.139 454.659C243.942 454.691 244.385 454.726 244.385 454.766Z" fill="#EB996E"/>
<path d="M241.055 460.208C241.059 460.246 240.504 460.355 239.494 460.513C238.484 460.668 237.018 460.878 235.195 461.054C233.373 461.221 231.184 461.357 228.753 461.207C226.314 461.079 223.686 460.517 220.974 459.899C215.566 458.578 210.538 458.168 206.898 458.172C205.079 458.164 203.606 458.236 202.587 458.293C201.569 458.348 201.005 458.384 200.999 458.34C200.995 458.305 201.551 458.193 202.567 458.07C203.583 457.945 205.061 457.811 206.894 457.767C210.551 457.657 215.662 458.012 221.1 459.341C223.816 459.96 226.398 460.526 228.788 460.681C231.178 460.857 233.347 460.764 235.162 460.651C236.98 460.528 238.45 460.381 239.467 460.293C240.485 460.202 241.05 460.168 241.055 460.208Z" fill="#EB996E"/>
<path d="M235.659 466.026C235.663 466.066 235.229 466.144 234.443 466.253C233.656 466.357 232.515 466.498 231.099 466.619C228.278 466.847 224.3 467.097 219.99 466.26C215.639 465.429 212.256 463.213 209.662 462.181C207.068 461.063 205.296 460.945 205.31 460.845C205.311 460.818 205.758 460.791 206.549 460.911C207.34 461.024 208.476 461.295 209.812 461.806C212.504 462.77 215.875 464.898 220.101 465.698C224.314 466.519 228.253 466.339 231.07 466.215C232.387 466.143 233.506 466.081 234.422 466.032C235.215 465.991 235.655 465.987 235.659 466.026Z" fill="#EB996E"/>
<g opacity="0.2">
<path d="M221.003 436.446C221.549 432.436 222.415 428.419 224.224 424.797C226.031 421.177 228.861 417.957 232.546 416.283C236.23 414.609 240.809 414.679 244.128 416.994C245.127 417.691 246.019 418.606 246.437 419.75C246.855 420.894 246.716 422.288 245.88 423.174C244.662 424.467 242.605 424.261 240.831 424.184C232.737 423.83 224.654 428.7 221.183 436.021" fill="black"/>
</g>
<g opacity="0.2">
<path d="M125.306 433.09C129.684 425.193 128.133 415.286 124.773 406.904C121.413 398.524 116.392 390.814 113.828 382.157C113.344 399.671 115.909 417.264 121.374 433.911" fill="black"/>
</g>
<path d="M133.069 312.233C133.069 312.233 138.414 324.831 157.694 324.029C176.974 323.228 177.6 308.268 177.6 308.268L190.498 321.982L178.245 347.239L161.785 359.526L139.359 350.311L120.884 335.976L133.069 312.233Z" fill="#E8505B"/>
<g opacity="0.5">
<path d="M87.9121 366.076C88.1104 366.323 85.5879 368.677 82.2786 371.332C78.9682 373.987 76.1251 375.939 75.9267 375.692C75.7284 375.445 78.2508 373.093 81.5601 370.437C84.8694 367.781 87.7137 365.829 87.9121 366.076Z" fill="#FAFAFA"/>
</g>
<path d="M96.9437 352.487C96.8445 352.774 93.7997 351.914 90.5058 349.882C87.202 347.865 85.0586 345.538 85.268 345.32C85.4895 345.074 87.9073 346.953 91.1064 348.904C94.2934 350.872 97.0638 352.179 96.9437 352.487Z" fill="#FAFAFA"/>
<path d="M113.508 353.962C113.768 354.163 111.333 357.703 108.56 362.199C105.773 366.689 103.691 370.447 103.396 370.304C103.12 370.175 104.762 366.143 107.584 361.595C110.394 357.041 113.269 353.772 113.508 353.962Z" fill="#FAFAFA"/>
<path d="M99.3564 392.256C99.1305 392.457 96.5871 389.864 94.361 386.01C92.1174 382.164 91.1278 378.671 91.4132 378.574C91.7239 378.457 93.1665 381.688 95.3528 385.434C97.5205 389.188 99.6121 392.044 99.3564 392.256Z" fill="#FAFAFA"/>
<path d="M84.5684 410.788C84.2543 410.831 83.613 408.026 83.1369 404.524C82.6597 401.021 82.5286 398.148 82.8427 398.105C83.1567 398.062 83.7981 400.867 84.2742 404.369C84.7502 407.871 84.8825 410.745 84.5684 410.788Z" fill="#FAFAFA"/>
<g opacity="0.5">
<path d="M98.4954 415.835C98.221 415.676 99.6371 412.723 101.658 409.239C103.679 405.755 105.539 403.06 105.814 403.219C106.088 403.378 104.672 406.331 102.651 409.815C100.63 413.298 98.7687 415.993 98.4954 415.835Z" fill="#FAFAFA"/>
</g>
<path d="M82.316 435.022C82.0868 435.227 79.6293 432.819 77.2446 429.332C74.8489 425.851 73.4868 422.692 73.7612 422.553C74.0499 422.4 75.8385 425.266 78.1912 428.683C80.5319 432.107 82.5629 434.808 82.316 435.022Z" fill="#FAFAFA"/>
<path d="M104.3 431.857C104.525 432.081 101.996 434.998 98.65 438.374C95.3043 441.751 92.4094 444.307 92.1846 444.084C91.9597 443.861 94.4888 440.943 97.8345 437.566C101.18 434.19 104.074 431.633 104.3 431.857Z" fill="#FAFAFA"/>
<g opacity="0.5">
<path d="M91.8032 471.455C91.595 471.676 89.1562 469.639 86.9313 466.449C84.692 463.267 83.611 460.28 83.8898 460.16C84.1884 460.019 85.6993 462.705 87.8713 465.79C90.0279 468.885 92.038 471.223 91.8032 471.455Z" fill="#FAFAFA"/>
</g>
<path d="M120.171 463.439C120.328 463.715 117.619 465.555 114.121 467.55C110.622 469.545 107.659 470.939 107.501 470.664C107.345 470.388 110.052 468.548 113.552 466.552C117.05 464.559 120.013 463.165 120.171 463.439Z" fill="#FAFAFA"/>
<path d="M131.228 454.314C131.033 454.543 128.456 452.581 126.127 449.378C123.783 446.184 122.7 443.132 122.978 443.016C123.279 442.876 124.788 445.618 127.054 448.701C129.301 451.797 131.453 454.069 131.228 454.314Z" fill="#FAFAFA"/>
<path d="M150.725 390.853C150.914 391.106 147.997 393.612 144.209 396.449C140.419 399.286 137.193 401.38 137.004 401.127C136.814 400.873 139.731 398.367 143.521 395.531C147.31 392.693 150.535 390.599 150.725 390.853Z" fill="#FAFAFA"/>
<path d="M130.176 389.527C129.861 389.495 129.911 386.476 130.29 382.784C130.668 379.091 131.231 376.124 131.547 376.158C131.862 376.189 131.811 379.209 131.432 382.902C131.053 386.592 130.491 389.559 130.176 389.527Z" fill="#FAFAFA"/>
<g opacity="0.5">
<path d="M149.125 363.709C148.948 363.962 145.533 361.859 141.784 358.654C138.027 355.457 135.412 352.417 135.634 352.203C135.866 351.975 138.815 354.622 142.529 357.782C146.233 360.949 149.313 363.445 149.125 363.709Z" fill="#FAFAFA"/>
</g>
<path d="M134.897 331.512C135.138 331.717 132.728 334.956 129.514 338.746C126.298 342.537 123.497 345.443 123.254 345.236C123.013 345.032 125.423 341.794 128.637 338.003C131.853 334.213 134.655 331.307 134.897 331.512Z" fill="#FAFAFA"/>
<g opacity="0.5">
<path d="M118.595 328.063C118.421 328.346 115.959 327.079 112.759 326.006C109.565 324.911 106.841 324.42 106.875 324.089C106.892 323.788 109.787 323.777 113.128 324.92C116.474 326.045 118.766 327.815 118.595 328.063Z" fill="#FAFAFA"/>
</g>
<path d="M160.024 342.907C159.719 342.818 160.241 340.136 161.186 336.918C162.133 333.699 163.147 331.162 163.451 331.251C163.755 331.341 163.235 334.022 162.288 337.242C161.342 340.46 160.328 342.996 160.024 342.907Z" fill="#FAFAFA"/>
<path d="M169.924 368.272C169.608 368.254 169.501 365.629 169.686 362.41C169.871 359.191 170.278 356.596 170.594 356.615C170.91 356.634 171.017 359.256 170.832 362.476C170.647 365.695 170.24 368.291 169.924 368.272Z" fill="#FAFAFA"/>
<path d="M186.205 387.305C186.007 387.552 183.594 385.943 180.817 383.71C178.04 381.478 175.95 379.468 176.148 379.221C176.346 378.974 178.759 380.583 181.536 382.817C184.314 385.047 186.404 387.058 186.205 387.305Z" fill="#FAFAFA"/>
<path d="M203.552 360.727C203.761 360.965 201.609 363.207 198.743 365.735C195.878 368.263 193.386 370.119 193.176 369.882C192.967 369.644 195.119 367.402 197.984 364.874C200.849 362.346 203.342 360.49 203.552 360.727Z" fill="#FAFAFA"/>
<g opacity="0.5">
<path d="M195.579 348.182C195.41 348.441 192.684 346.947 189.75 344.508C186.809 342.076 184.837 339.674 185.06 339.46C185.293 339.233 187.595 341.236 190.483 343.624C193.363 346.019 195.758 347.911 195.579 348.182Z" fill="#FAFAFA"/>
</g>
<path d="M215.62 325.815C215.87 325.989 214.535 328.27 212.177 330.477C209.828 332.695 207.469 333.886 207.309 333.625C207.131 333.349 209.131 331.775 211.39 329.641C213.661 327.518 215.355 325.619 215.62 325.815Z" fill="#FAFAFA"/>
<g opacity="0.5">
<path d="M201.839 323.719C201.797 324.024 198.278 323.773 194.077 322.705C189.873 321.647 186.659 320.196 186.767 319.907C186.878 319.601 190.219 320.552 194.359 321.592C198.494 322.644 201.887 323.397 201.839 323.719Z" fill="#FAFAFA"/>
</g>
<g opacity="0.5">
<path d="M227.434 359.333C227.132 359.268 227.819 354.963 229.392 349.835C230.955 344.702 232.791 340.749 233.077 340.864C233.38 340.983 232.038 345.087 230.49 350.17C228.931 355.249 227.751 359.404 227.434 359.333Z" fill="#FAFAFA"/>
</g>
<path d="M233.103 383.64C232.873 383.857 230.152 381.349 227.027 378.037C223.9 374.725 221.553 371.864 221.784 371.647C222.015 371.43 224.735 373.937 227.862 377.249C230.986 380.561 233.333 383.422 233.103 383.64Z" fill="#FAFAFA"/>
<g opacity="0.5">
<path d="M241.886 397.413C241.568 397.407 241.373 393.795 241.449 389.346C241.525 384.895 241.844 381.293 242.16 381.298C242.477 381.304 242.673 384.915 242.596 389.365C242.52 393.815 242.202 397.418 241.886 397.413Z" fill="#FAFAFA"/>
</g>
<path d="M232.97 420.086C232.722 420.266 230.358 417.377 228.18 413.341C225.989 409.311 224.863 405.753 225.148 405.642C225.453 405.52 227.035 408.833 229.189 412.794C231.329 416.762 233.238 419.898 232.97 420.086Z" fill="#FAFAFA"/>
<path d="M255.734 424.227C255.956 424.454 254.427 426.305 252.32 428.362C250.213 430.42 248.326 431.904 248.104 431.677C247.883 431.45 249.411 429.599 251.518 427.54C253.625 425.484 255.513 424 255.734 424.227Z" fill="#FAFAFA"/>
<g opacity="0.5">
<path d="M200.319 398.383C200.036 398.297 201.049 394.681 203.66 390.921C206.25 387.143 209.271 384.914 209.452 385.149C209.677 385.401 207.097 387.933 204.605 391.573C202.087 395.192 200.635 398.505 200.319 398.383Z" fill="#FAFAFA"/>
</g>
<path d="M136.058 428.619C135.751 428.543 136.293 425.265 137.27 421.296C138.247 417.327 139.288 414.172 139.596 414.248C139.903 414.324 139.361 417.601 138.385 421.571C137.407 425.539 136.366 428.695 136.058 428.619Z" fill="#FAFAFA"/>
<path d="M163.128 431.314C162.955 431.579 160.211 430.097 157 428.003C153.787 425.91 151.324 423.998 151.497 423.731C151.67 423.465 154.414 424.948 157.626 427.041C160.838 429.135 163.301 431.048 163.128 431.314Z" fill="#FAFAFA"/>
<path d="M161.77 411.786C161.507 411.963 160.216 410.495 158.889 408.509C157.562 406.522 156.699 404.769 156.963 404.592C157.227 404.416 158.516 405.884 159.844 407.871C161.171 409.857 162.033 411.61 161.77 411.786Z" fill="#FAFAFA"/>
<path d="M173.706 416.236C173.888 416.495 172.728 417.623 171.117 418.755C169.505 419.887 168.05 420.594 167.869 420.335C167.687 420.076 168.846 418.948 170.458 417.816C172.069 416.683 173.524 415.976 173.706 416.236Z" fill="#FAFAFA"/>
<g opacity="0.5">
<path d="M142.54 495.462C142.227 495.368 142.736 492.865 143.19 489.776C143.658 486.687 143.9 484.147 144.226 484.147C144.534 484.141 144.806 486.759 144.325 489.946C143.856 493.133 142.832 495.557 142.54 495.462Z" fill="#FAFAFA"/>
</g>
<g opacity="0.5">
<path d="M170.003 486.522C169.728 486.678 167.635 483.521 165.33 479.47C163.023 475.418 161.378 472.006 161.653 471.85C161.929 471.693 164.021 474.851 166.327 478.903C168.633 482.952 170.279 486.364 170.003 486.522Z" fill="#FAFAFA"/>
</g>
<g opacity="0.5">
<path d="M199.135 474.233C199.387 474.426 196.625 478.458 192.968 483.24C189.309 488.022 186.141 491.743 185.889 491.55C185.637 491.357 188.398 487.326 192.057 482.542C195.714 477.762 198.883 474.041 199.135 474.233Z" fill="#FAFAFA"/>
</g>
<g opacity="0.5">
<path d="M207.342 497.631C207.388 497.945 203.74 498.732 199.195 499.389C194.649 500.047 190.929 500.324 190.884 500.011C190.839 499.697 194.485 498.91 199.031 498.254C203.576 497.596 207.297 497.317 207.342 497.631Z" fill="#FAFAFA"/>
</g>
<path d="M208.604 485.842C208.284 485.769 208.572 483.419 208.69 480.53C208.823 477.642 208.742 475.275 209.066 475.231C209.368 475.182 209.974 477.571 209.836 480.58C209.713 483.588 208.902 485.917 208.604 485.842Z" fill="#FAFAFA"/>
<path d="M169.273 499.574C169.162 499.854 166.185 498.864 163.077 496.619C159.958 494.389 158.072 491.883 158.302 491.689C158.547 491.464 160.742 493.543 163.747 495.688C166.738 497.853 169.408 499.271 169.273 499.574Z" fill="#FAFAFA"/>
<path d="M122.538 497.832C122.23 497.754 122.598 495.236 123.361 492.209C124.124 489.18 124.99 486.788 125.297 486.866C125.605 486.943 125.235 489.46 124.474 492.489C123.712 495.517 122.845 497.91 122.538 497.832Z" fill="#FAFAFA"/>
<path d="M117.46 219.096C117.532 219.006 118.783 220.084 121.09 221.35C122.237 221.993 123.674 222.624 125.312 223.192C126.961 223.727 128.82 224.176 130.809 224.419C132.8 224.635 134.713 224.618 136.442 224.474C138.167 224.292 139.709 224.004 140.972 223.639C143.507 222.929 144.97 222.165 145.019 222.269C145.036 222.304 144.68 222.509 144.017 222.85C143.688 223.027 143.278 223.228 142.781 223.412C142.286 223.602 141.733 223.852 141.087 224.026C139.817 224.449 138.253 224.785 136.495 224.998C134.734 225.176 132.777 225.209 130.742 224.987C128.71 224.741 126.814 224.263 125.139 223.691C123.476 223.084 122.029 222.4 120.888 221.701C120.299 221.385 119.817 221.015 119.379 220.717C118.936 220.424 118.582 220.135 118.302 219.888C117.734 219.406 117.435 219.126 117.46 219.096Z" fill="#455A64"/>
<path d="M145.93 231.772C145.938 231.81 145.511 231.945 144.729 232.144C143.947 232.343 142.806 232.601 141.38 232.849C138.548 233.332 134.479 233.812 130.091 232.916C125.697 232.006 122.185 229.611 120.338 227.355C119.399 226.234 118.808 225.198 118.491 224.449C118.17 223.702 118.059 223.265 118.088 223.255C118.205 223.194 118.726 224.966 120.644 227.089C122.515 229.211 125.943 231.47 130.209 232.355C134.48 233.23 138.488 232.827 141.318 232.449C142.741 232.253 143.888 232.057 144.683 231.925C145.478 231.793 145.921 231.732 145.93 231.772Z" fill="#455A64"/>
<path d="M106.689 299.216C106.681 299.223 106.633 299.171 106.544 299.064C106.459 298.955 106.317 298.801 106.169 298.572C105.876 298.116 105.495 297.389 105.291 296.366C104.856 294.357 105.308 291.079 107.713 288.179C108.907 286.752 110.51 285.471 112.323 284.291C114.129 283.098 116.162 282.002 118.152 280.659C120.122 279.313 122.112 277.676 123.462 275.476C124.13 274.381 124.606 273.144 124.781 271.833C124.965 270.524 124.862 269.163 124.568 267.826C123.966 265.138 122.761 262.675 121.778 260.225C120.765 257.795 119.975 255.278 119.914 252.806C119.713 247.85 121.561 243.567 123.694 240.592C125.851 237.565 128.375 235.8 130.194 234.862C130.65 234.644 131.062 234.447 131.428 234.272C131.787 234.145 132.101 234.036 132.373 233.94C132.886 233.767 133.157 233.686 133.162 233.704C133.168 233.723 132.909 233.841 132.413 234.048C132.149 234.157 131.844 234.283 131.496 234.427C131.141 234.615 130.742 234.825 130.299 235.059C128.536 236.045 126.096 237.829 124.025 240.825C121.975 243.771 120.216 247.975 120.442 252.782C120.517 255.178 121.284 257.593 122.298 260.012C123.279 262.441 124.503 264.918 125.128 267.703C125.433 269.09 125.543 270.524 125.345 271.913C125.159 273.302 124.646 274.622 123.94 275.768C122.512 278.076 120.455 279.739 118.446 281.098C116.412 282.45 114.378 283.526 112.579 284.689C110.776 285.839 109.199 287.073 108.019 288.443C105.661 291.203 105.152 294.372 105.509 296.324C105.866 298.335 106.777 299.176 106.689 299.216Z" fill="#455A64"/>
<path d="M136.041 299.617C136.031 299.635 135.814 299.511 135.403 299.258C135.024 298.969 134.451 298.511 133.981 297.711C133.497 296.928 133.111 295.837 132.989 294.535C132.868 293.233 133.016 291.731 133.47 290.153C134.365 286.918 137.069 283.974 139.098 280.279C140.106 278.43 140.827 276.288 140.754 274.001C140.716 271.72 140.023 269.399 138.984 267.199C136.89 262.767 133.673 259.245 131.45 255.557C130.326 253.723 129.405 251.866 128.85 250.018C128.263 248.173 128.155 246.334 128.309 244.706C128.619 241.411 130.14 239.004 131.518 237.815C132.224 237.226 132.845 236.869 133.286 236.681C133.732 236.501 133.967 236.416 133.973 236.435C134.014 236.509 132.998 236.776 131.669 237.98C130.377 239.187 128.965 241.541 128.714 244.743C128.59 246.329 128.716 248.097 129.304 249.878C129.863 251.671 130.779 253.479 131.9 255.28C133.026 257.082 134.361 258.882 135.719 260.776C137.08 262.665 138.441 264.695 139.503 266.955C140.566 269.205 141.283 271.607 141.316 273.994C141.387 276.389 140.609 278.652 139.563 280.532C137.454 284.294 134.756 287.179 133.858 290.273C133.393 291.795 133.222 293.251 133.309 294.511C133.396 295.772 133.737 296.828 134.173 297.598C135.062 299.165 136.116 299.539 136.041 299.617Z" fill="#455A64"/>
<path d="M179.53 216.89C179.52 216.907 179.378 216.847 179.113 216.714C178.851 216.578 178.476 216.354 178.022 216.019C177.119 215.351 175.935 214.185 174.853 212.484C173.746 210.797 172.803 208.584 171.802 206.156C171.294 204.944 170.753 203.679 170.087 202.427C169.393 201.196 168.626 199.941 167.655 198.794C163.841 194.09 158.707 191.567 154.918 190.584C151.079 189.582 148.573 189.809 148.58 189.676C148.579 189.639 149.194 189.594 150.315 189.578C151.43 189.624 153.062 189.71 155.018 190.19C156.965 190.669 159.251 191.473 161.543 192.834C163.824 194.191 166.176 196.02 168.1 198.431C169.095 199.607 169.88 200.898 170.584 202.164C171.258 203.447 171.795 204.732 172.291 205.953C173.268 208.401 174.157 210.588 175.197 212.268C176.213 213.961 177.318 215.135 178.161 215.844C179.008 216.554 179.556 216.844 179.53 216.89Z" fill="#455A64"/>
<path d="M194.898 216.799C194.895 216.819 194.692 216.797 194.306 216.737C193.918 216.687 193.355 216.548 192.65 216.307C191.244 215.828 189.297 214.773 187.397 212.893C185.475 211.042 183.623 208.426 181.946 205.361C180.22 202.332 178.546 198.848 175.954 195.817C173.39 192.749 169.906 190.922 166.604 189.984C163.277 189.038 160.126 188.846 157.505 188.77C154.877 188.712 152.745 188.822 151.271 188.879C150.588 188.906 150.027 188.926 149.574 188.944C149.185 188.954 148.98 188.95 148.979 188.93C148.978 188.91 149.18 188.876 149.566 188.828C149.951 188.782 150.521 188.717 151.257 188.656C152.728 188.531 154.862 188.358 157.51 188.364C160.15 188.39 163.339 188.537 166.747 189.475C170.124 190.4 173.749 192.283 176.388 195.443C179.048 198.557 180.714 202.076 182.408 205.104C184.053 208.167 185.836 210.753 187.684 212.605C189.511 214.484 191.374 215.564 192.73 216.097C194.092 216.635 194.912 216.735 194.898 216.799Z" fill="#455A64"/>
<path d="M220.921 288.325C220.857 288.301 221.203 287.542 221.569 286.1C221.935 284.665 222.349 282.528 222.232 279.876C222.138 277.239 221.509 274.07 219.89 270.971C219.09 269.419 218.02 267.923 216.739 266.512C215.463 265.095 214.003 263.748 212.526 262.337C211.05 260.928 209.622 259.504 208.442 257.955C207.253 256.416 206.282 254.802 205.503 253.197C204.719 251.594 204.137 249.994 203.727 248.463C203.302 246.936 203.036 245.479 202.898 244.14C202.603 241.46 202.754 239.271 202.961 237.787C203.048 237.041 203.179 236.472 203.264 236.087C203.35 235.701 203.404 235.502 203.424 235.506C203.482 235.517 203.314 236.329 203.182 237.812C203.045 239.291 202.958 241.457 203.3 244.092C203.462 245.409 203.747 246.838 204.184 248.334C204.607 249.834 205.195 251.399 205.978 252.966C206.755 254.534 207.716 256.109 208.885 257.611C210.043 259.121 211.45 260.519 212.922 261.924C214.393 263.33 215.862 264.69 217.156 266.138C218.454 267.58 219.55 269.131 220.358 270.73C221.995 273.928 222.592 277.178 222.636 279.867C222.703 282.571 222.218 284.731 221.783 286.164C221.562 286.883 221.354 287.428 221.186 287.787C221.03 288.146 220.94 288.332 220.921 288.325Z" fill="#455A64"/>
<path d="M100.199 215.928C100.167 215.923 100.189 215.534 100.339 214.848C100.487 214.161 100.814 213.185 101.421 212.076C102.591 209.881 105.221 207.123 109.06 206.184C112.911 205.282 116.506 206.552 118.541 207.981C119.584 208.695 120.318 209.418 120.76 209.964C121.206 210.508 121.401 210.845 121.374 210.864C121.284 210.948 120.407 209.625 118.321 208.323C116.294 207.025 112.84 205.887 109.194 206.744C105.556 207.631 102.992 210.207 101.772 212.281C100.501 214.385 100.317 215.962 100.199 215.928Z" fill="#455A64"/>
<path d="M110.878 220.567C110.808 220.554 110.881 219.596 111.185 218.066C111.508 216.571 112.065 214.342 113.79 212.54C115.589 210.736 118.13 210.513 119.632 211.062C120.397 211.341 120.927 211.77 121.193 212.13C121.469 212.483 121.555 212.719 121.529 212.733C121.44 212.824 120.96 211.865 119.509 211.448C118.124 211.041 115.802 211.325 114.201 212.942C112.61 214.596 111.996 216.704 111.581 218.161C111.178 219.646 110.963 220.585 110.878 220.567Z" fill="#455A64"/>
<path d="M124.874 204.425C125.023 204.529 123.182 206.945 121.979 210.428C120.74 213.899 120.664 216.935 120.484 216.923C120.348 216.945 120.163 213.817 121.438 210.238C122.682 206.649 124.783 204.323 124.874 204.425Z" fill="#E8505B"/>
<path d="M301.174 231.29C301.174 233.184 302.709 234.719 304.603 234.719C306.498 234.719 308.033 233.184 308.033 231.29C308.033 229.395 306.498 227.86 304.603 227.86C302.709 227.859 301.174 229.395 301.174 231.29Z" fill="#455A64"/>
<path d="M290.878 234.719C292.772 234.719 294.308 233.184 294.308 231.29C294.308 229.396 292.772 227.86 290.878 227.86C288.984 227.86 287.449 229.396 287.449 231.29C287.449 233.184 288.984 234.719 290.878 234.719Z" fill="#455A64"/>
<path d="M273.759 229.574C272.812 231.215 273.374 233.312 275.014 234.26C276.655 235.206 278.752 234.644 279.699 233.005C280.646 231.364 280.085 229.267 278.444 228.32C276.802 227.372 274.705 227.934 273.759 229.574Z" fill="#455A64"/>
<path d="M290.666 191.23C290.666 191.214 290.431 191.21 289.972 191.219C289.469 191.233 288.794 191.252 287.935 191.276C287.487 191.297 286.984 191.297 286.433 191.343C285.881 191.421 285.282 191.505 284.635 191.596C283.983 191.689 283.283 191.79 282.537 191.898C281.801 192.08 281.02 192.273 280.193 192.478C276.901 193.326 272.911 194.772 268.833 197.432C264.756 200.048 260.52 203.79 257.083 208.875C253.71 213.966 251.107 220.372 250.417 227.566C250.35 229.367 250.133 231.198 250.306 233.06C250.371 233.989 250.352 234.933 250.488 235.87C250.629 236.806 250.771 237.75 250.914 238.7C251.681 242.453 252.799 246.298 254.733 249.879C256.622 253.469 259.059 256.885 262.035 259.926C265.068 262.906 268.611 265.491 272.554 267.484C276.486 269.493 280.842 270.879 285.377 271.42C286.5 271.643 287.65 271.642 288.798 271.711C289.945 271.786 291.098 271.828 292.255 271.774C294.568 271.68 296.887 271.389 299.18 270.899C304.16 269.839 308.849 267.811 312.966 265.097L312.547 265.139C317.325 267.056 322.014 268.938 326.59 270.774L327.422 271.108L327.185 270.245C325.768 265.093 324.39 260.081 323.057 255.233L322.986 255.603C326.927 250.365 329.439 244.386 330.48 238.448C331.002 235.482 331.222 232.521 331.025 229.659C330.965 228.225 330.895 226.811 330.626 225.437C330.519 224.747 330.414 224.063 330.308 223.383C330.182 222.707 329.977 222.053 329.817 221.395C327.104 210.827 320.596 203.021 314.149 198.555C310.923 196.283 307.74 194.653 304.825 193.636C304.099 193.375 303.399 193.125 302.725 192.884C302.033 192.708 301.368 192.539 300.731 192.377C300.095 192.219 299.487 192.068 298.907 191.925C298.322 191.813 297.758 191.752 297.229 191.672C296.167 191.537 295.234 191.354 294.417 191.314C293.612 191.286 292.926 191.263 292.353 191.244C291.83 191.233 291.415 191.223 291.092 191.217C290.81 191.212 290.666 191.218 290.666 191.23C290.666 191.242 290.809 191.262 291.092 191.288C291.413 191.314 291.826 191.347 292.347 191.387C292.916 191.426 293.598 191.471 294.397 191.526C295.208 191.589 296.131 191.794 297.183 191.949C301.315 192.708 307.512 194.355 313.842 198.984C320.163 203.452 326.506 211.184 329.115 221.572C329.269 222.219 329.468 222.863 329.588 223.526C329.688 224.194 329.789 224.867 329.891 225.544C330.149 226.893 330.21 228.281 330.263 229.689C330.446 232.496 330.215 235.399 329.694 238.305C328.653 244.12 326.174 249.968 322.303 255.087L322.176 255.255L322.231 255.459C323.555 260.31 324.922 265.324 326.328 270.48L326.922 269.951C322.348 268.11 317.662 266.222 312.886 264.299L312.666 264.211L312.466 264.342C308.438 266.992 303.854 268.973 298.988 270.009C296.748 270.488 294.48 270.772 292.218 270.865C291.087 270.919 289.96 270.877 288.837 270.804C287.716 270.737 286.591 270.74 285.494 270.522C281.059 269.999 276.8 268.646 272.953 266.687C269.095 264.744 265.624 262.222 262.648 259.313C259.73 256.34 257.338 253.004 255.477 249.495C253.571 245.994 252.468 242.232 251.701 238.556C251.558 237.625 251.415 236.702 251.272 235.784C251.136 234.866 251.151 233.939 251.084 233.029C250.904 231.203 251.113 229.405 251.169 227.638C251.813 220.575 254.333 214.269 257.618 209.235C260.967 204.209 265.11 200.486 269.108 197.862C273.109 195.195 277.035 193.715 280.285 192.823C281.1 192.606 281.873 192.4 282.599 192.206C283.337 192.085 284.029 191.972 284.674 191.866C285.314 191.76 285.908 191.662 286.455 191.573C287.001 191.512 287.501 191.498 287.946 191.462C288.802 191.4 289.473 191.351 289.974 191.315C290.431 191.273 290.666 191.245 290.666 191.23Z" fill="#455A64"/>
</svg>
