<svg width="127" height="126" viewBox="0 0 127 126" fill="none" xmlns="http://www.w3.org/2000/svg">
<g filter="url(#filter0_d_294_265)">
<path fill-rule="evenodd" clip-rule="evenodd" d="M32.306 1.11703C25.8091 3.05956 17.2413 12.1468 15.3738 19.0743C14.384 22.7518 13.9797 35.031 14.2635 52.8056C14.7051 80.4686 14.7467 80.8118 18.4235 86.3585C20.4655 89.441 24.5147 93.4409 27.4219 95.2465C32.5745 98.448 33.4813 98.5297 63.8543 98.5297C94.2272 98.5297 95.134 98.448 100.287 95.2465C103.194 93.4409 107.243 89.4383 109.285 86.3543L112.999 80.7453V49.5141C112.999 19.0522 112.919 18.1529 109.714 13.0019C107.908 10.0964 103.905 6.04944 100.821 4.00868C95.2226 0.302112 95.1686 0.296579 66.036 0.0267836C49.9885 -0.122641 34.8103 0.368524 32.306 1.11703ZM101.177 12.6823C104.855 17.111 99.4532 23.914 94.6564 20.8951C91.5803 18.9595 90.8286 15.2737 92.9813 12.6823C95.1188 10.1074 99.0393 10.1074 101.177 12.6823ZM79.0615 26.4072C87.3151 31.8654 90.8494 38.7624 90.8494 49.4131C90.8494 60.2022 87.3082 66.965 78.667 72.6805C70.9436 77.7887 57.4239 77.9879 49.5718 73.1094C39.0921 66.5984 34.1679 53.6704 37.4821 41.3705C39.387 34.2991 47.8593 25.2409 54.4558 23.2236C61.714 21.003 73.124 22.4793 79.0615 26.4072ZM57.6246 34.0597C51.4628 36.7646 47.9341 42.386 47.9341 49.4975C47.9341 55.3099 48.5792 56.9231 52.4595 60.8013C56.3552 64.6946 57.943 65.3241 63.8543 65.3241C69.7655 65.3241 71.3534 64.6946 75.249 60.8013C79.1446 56.9079 79.7745 55.321 79.7745 49.4131C79.7745 43.5842 79.128 41.9031 75.4926 38.2685C70.9214 33.7 62.8008 31.7879 57.6246 34.0597Z" fill="#F7FBFD" fill-opacity="0.85" shape-rendering="crispEdges"/>
</g>
<defs>
<filter id="filter0_d_294_265" x="0.781411" y="0" width="125.611" height="125.317" filterUnits="userSpaceOnUse" color-interpolation-filters="sRGB">
<feFlood flood-opacity="0" result="BackgroundImageFix"/>
<feColorMatrix in="SourceAlpha" type="matrix" values="0 0 0 0 0 0 0 0 0 0 0 0 0 0 0 0 0 0 127 0" result="hardAlpha"/>
<feOffset dy="13.3934"/>
<feGaussianBlur stdDeviation="6.6967"/>
<feComposite in2="hardAlpha" operator="out"/>
<feColorMatrix type="matrix" values="0 0 0 0 0 0 0 0 0 0 0 0 0 0 0 0 0 0 0.25 0"/>
<feBlend mode="normal" in2="BackgroundImageFix" result="effect1_dropShadow_294_265"/>
<feBlend mode="normal" in="SourceGraphic" in2="effect1_dropShadow_294_265" result="shape"/>
</filter>
</defs>
</svg>
