<svg width="138" height="116" viewBox="0 0 138 116" fill="none" xmlns="http://www.w3.org/2000/svg">
<g filter="url(#filter0_d_294_264)">
<path fill-rule="evenodd" clip-rule="evenodd" d="M77.6808 3.12062C74.6352 4.51802 71.0774 6.86178 69.7733 8.32836C66.5201 11.9907 63.145 20.4152 63.145 24.8744C63.145 28.48 62.9927 28.545 56.6011 27.6692C47.7481 26.4558 34.7516 20.1094 26.9909 13.2082C23.476 10.0841 20.2047 7.92159 19.723 8.40307C18.0756 10.0509 18.8411 21.4003 20.8637 25.3102C21.9739 27.4561 25.2452 31.1406 28.1316 33.4968L33.3811 37.7817L28.7906 37.8273C26.2669 37.8536 22.9956 37.2296 21.5226 36.4424C19.4738 35.3466 18.8453 35.4601 18.8453 36.9294C18.8453 41.2019 25.3989 48.4144 32.592 52.0559C40.4746 56.0475 39.8198 56.713 28.7684 55.941C24.6707 55.6546 24.308 55.9036 25.5248 58.1768C27.9198 62.6471 32.473 65.8971 39.8253 68.3848L46.9673 70.8018L41.1239 73.7807C37.5854 75.5862 31.0845 77.151 24.6402 77.7487L14 78.738L21.614 82.3422C32.9492 87.7104 42.6425 89.5671 54.2186 88.589C82.551 86.1954 104.081 68.6808 110.913 42.4678C112.05 38.0999 112.982 32.0371 112.982 28.9947C112.982 24.4773 113.933 22.4822 118.174 18.1102L123.365 12.7558L117.827 13.6814L112.29 14.6084L115.959 11.3681C117.976 9.58602 120.656 6.47438 121.914 4.45438L124.204 0.781015L115.748 4.19427L107.292 7.60752L100.175 4.06283C91.8 -0.108617 85.3087 -0.379796 77.6808 3.12062Z" fill="#F7FBFD" fill-opacity="0.85" shape-rendering="crispEdges"/>
</g>
<defs>
<filter id="filter0_d_294_264" x="0.606606" y="0.696777" width="136.991" height="114.929" filterUnits="userSpaceOnUse" color-interpolation-filters="sRGB">
<feFlood flood-opacity="0" result="BackgroundImageFix"/>
<feColorMatrix in="SourceAlpha" type="matrix" values="0 0 0 0 0 0 0 0 0 0 0 0 0 0 0 0 0 0 127 0" result="hardAlpha"/>
<feOffset dy="13.3934"/>
<feGaussianBlur stdDeviation="6.6967"/>
<feComposite in2="hardAlpha" operator="out"/>
<feColorMatrix type="matrix" values="0 0 0 0 0 0 0 0 0 0 0 0 0 0 0 0 0 0 0.25 0"/>
<feBlend mode="normal" in2="BackgroundImageFix" result="effect1_dropShadow_294_264"/>
<feBlend mode="normal" in="SourceGraphic" in2="effect1_dropShadow_294_264" result="shape"/>
</filter>
</defs>
</svg>
