<svg width="469" height="64" viewBox="0 0 469 64" fill="none" xmlns="http://www.w3.org/2000/svg">
<path d="M12.9398 11.8617V9.80994H17.0433V24.1919H14.7745V11.8617H12.9398ZM20.1329 16.8135C20.1329 14.5382 20.5143 12.7626 21.2771 11.4868C22.0531 10.1979 23.3815 9.55347 25.2623 9.55347C27.143 9.55347 28.4648 10.1979 29.2277 11.4868C30.0036 12.7626 30.3916 14.5382 30.3916 16.8135C30.3916 19.1151 30.0036 20.917 29.2277 22.2191C28.4648 23.508 27.143 24.1524 25.2623 24.1524C23.3815 24.1524 22.0531 23.508 21.2771 22.2191C20.5143 20.917 20.1329 19.1151 20.1329 16.8135ZM28.1821 16.8135C28.1821 15.7482 28.1097 14.8472 27.9651 14.1107C27.8335 13.3742 27.5573 12.7758 27.1365 12.3154C26.7156 11.842 26.0909 11.6052 25.2623 11.6052C24.4337 11.6052 23.8089 11.842 23.3881 12.3154C22.9672 12.7758 22.6844 13.3742 22.5398 14.1107C22.4082 14.8472 22.3425 15.7482 22.3425 16.8135C22.3425 17.9183 22.4082 18.8455 22.5398 19.5952C22.6713 20.3449 22.9475 20.9499 23.3683 21.4102C23.8024 21.8705 24.4337 22.1007 25.2623 22.1007C26.0909 22.1007 26.7156 21.8705 27.1365 21.4102C27.5705 20.9499 27.8533 20.3449 27.9848 19.5952C28.1163 18.8455 28.1821 17.9183 28.1821 16.8135ZM32.7714 16.8135C32.7714 14.5382 33.1528 12.7626 33.9156 11.4868C34.6916 10.1979 36.02 9.55347 37.9007 9.55347C39.7815 9.55347 41.1033 10.1979 41.8661 11.4868C42.6421 12.7626 43.0301 14.5382 43.0301 16.8135C43.0301 19.1151 42.6421 20.917 41.8661 22.2191C41.1033 23.508 39.7815 24.1524 37.9007 24.1524C36.02 24.1524 34.6916 23.508 33.9156 22.2191C33.1528 20.917 32.7714 19.1151 32.7714 16.8135ZM40.8205 16.8135C40.8205 15.7482 40.7482 14.8472 40.6035 14.1107C40.472 13.3742 40.1958 12.7758 39.7749 12.3154C39.3541 11.842 38.7293 11.6052 37.9007 11.6052C37.0721 11.6052 36.4474 11.842 36.0265 12.3154C35.6057 12.7758 35.3229 13.3742 35.1782 14.1107C35.0467 14.8472 34.9809 15.7482 34.9809 16.8135C34.9809 17.9183 35.0467 18.8455 35.1782 19.5952C35.3097 20.3449 35.5859 20.9499 36.0068 21.4102C36.4408 21.8705 37.0721 22.1007 37.9007 22.1007C38.7293 22.1007 39.3541 21.8705 39.7749 21.4102C40.2089 20.9499 40.4917 20.3449 40.6232 19.5952C40.7548 18.8455 40.8205 17.9183 40.8205 16.8135ZM45.4098 16.8135C45.4098 14.5382 45.7912 12.7626 46.5541 11.4868C47.3301 10.1979 48.6584 9.55347 50.5392 9.55347C52.42 9.55347 53.7418 10.1979 54.5046 11.4868C55.2806 12.7626 55.6686 14.5382 55.6686 16.8135C55.6686 19.1151 55.2806 20.917 54.5046 22.2191C53.7418 23.508 52.42 24.1524 50.5392 24.1524C48.6584 24.1524 47.3301 23.508 46.5541 22.2191C45.7912 20.917 45.4098 19.1151 45.4098 16.8135ZM53.459 16.8135C53.459 15.7482 53.3867 14.8472 53.242 14.1107C53.1105 13.3742 52.8343 12.7758 52.4134 12.3154C51.9925 11.842 51.3678 11.6052 50.5392 11.6052C49.7106 11.6052 49.0859 11.842 48.665 12.3154C48.2441 12.7758 47.9614 13.3742 47.8167 14.1107C47.6852 14.8472 47.6194 15.7482 47.6194 16.8135C47.6194 17.9183 47.6852 18.8455 47.8167 19.5952C47.9482 20.3449 48.2244 20.9499 48.6453 21.4102C49.0793 21.8705 49.7106 22.1007 50.5392 22.1007C51.3678 22.1007 51.9925 21.8705 52.4134 21.4102C52.8474 20.9499 53.1302 20.3449 53.2617 19.5952C53.3932 18.8455 53.459 17.9183 53.459 16.8135ZM68.9383 18.0169H64.9532V22.1007H62.862V18.0169H58.8769V16.123H62.862V12.0392H64.9532V16.123H68.9383V18.0169ZM9.61107 40.4412V41.9011H3.63338V46.5373H8.48655V47.9972H3.63338V54.1919H1.8381V40.4412H9.61107ZM13.5746 45.1366C13.8903 44.5184 14.3374 44.0384 14.9161 43.6964C15.508 43.3545 16.2248 43.1835 17.0665 43.1835V45.0379H16.593C14.5808 45.0379 13.5746 46.1296 13.5746 48.3128V54.1919H11.7793V43.3808H13.5746V45.1366ZM29.0031 48.372C29.0031 48.714 28.9834 49.0757 28.9439 49.4571H20.3029C20.3687 50.5224 20.7303 51.3576 21.388 51.9626C22.0587 52.5544 22.8676 52.8504 23.8145 52.8504C24.5905 52.8504 25.235 52.6728 25.7479 52.3177C26.274 51.9494 26.6423 51.4628 26.8527 50.8578H28.7861C28.4967 51.8968 27.918 52.7451 27.05 53.4028C26.1819 54.0472 25.1035 54.3694 23.8145 54.3694C22.7887 54.3694 21.868 54.1393 21.0526 53.679C20.2503 53.2186 19.619 52.5676 19.1587 51.7259C18.6983 50.871 18.4682 49.8845 18.4682 48.7666C18.4682 47.6487 18.6918 46.6688 19.1389 45.8271C19.5861 44.9853 20.2108 44.3409 21.0131 43.8937C21.8286 43.4334 22.7624 43.2032 23.8145 43.2032C24.8404 43.2032 25.7479 43.4268 26.5371 43.874C27.3262 44.3211 27.9312 44.9393 28.3521 45.7284C28.7861 46.5044 29.0031 47.3856 29.0031 48.372ZM27.1486 47.9972C27.1486 47.3133 26.9974 46.728 26.6949 46.2414C26.3924 45.7416 25.9781 45.3668 25.452 45.1169C24.9391 44.8538 24.3669 44.7223 23.7356 44.7223C22.8281 44.7223 22.0521 45.0116 21.4077 45.5903C20.7764 46.169 20.4147 46.9713 20.3226 47.9972H27.1486ZM35.2001 54.3694C34.3715 54.3694 33.6284 54.2314 32.9708 53.9552C32.3132 53.6658 31.7937 53.2712 31.4123 52.7715C31.0309 52.2585 30.8204 51.6732 30.781 51.0156H32.6354C32.688 51.5549 32.9379 51.9955 33.3851 52.3374C33.8454 52.6794 34.4439 52.8504 35.1804 52.8504C35.8643 52.8504 36.4035 52.6991 36.7981 52.3966C37.1927 52.0941 37.39 51.7127 37.39 51.2524C37.39 50.7789 37.1795 50.4304 36.7586 50.2068C36.3378 49.97 35.6867 49.7399 34.8055 49.5163C34.0033 49.3058 33.3456 49.0954 32.8327 48.885C32.3329 48.6614 31.8989 48.3392 31.5306 47.9183C31.1755 47.4843 30.998 46.9187 30.998 46.2216C30.998 45.6693 31.1624 45.1629 31.4912 44.7026C31.82 44.2422 32.2869 43.8805 32.8919 43.6175C33.4969 43.3413 34.1874 43.2032 34.9634 43.2032C36.1602 43.2032 37.1269 43.5057 37.8634 44.1107C38.6 44.7157 38.9945 45.5443 39.0471 46.5965H37.2519C37.2124 46.0309 36.9822 45.5772 36.5614 45.2352C36.1536 44.8933 35.6013 44.7223 34.9042 44.7223C34.2597 44.7223 33.7468 44.8604 33.3654 45.1366C32.984 45.4128 32.7933 45.7745 32.7933 46.2216C32.7933 46.5768 32.905 46.8727 33.1286 47.1094C33.3654 47.333 33.6547 47.5171 33.9967 47.6618C34.3518 47.7933 34.8384 47.9446 35.4566 48.1156C36.2326 48.326 36.8639 48.5364 37.3505 48.7469C37.8371 48.9442 38.2514 49.2467 38.5934 49.6544C38.9485 50.0621 39.1326 50.5948 39.1458 51.2524C39.1458 51.8442 38.9814 52.3769 38.6526 52.8504C38.3238 53.3238 37.8569 53.6987 37.2519 53.9749C36.66 54.2379 35.9761 54.3694 35.2001 54.3694ZM47.0462 43.1835C47.8616 43.1835 48.5982 43.361 49.2558 43.7161C49.9134 44.0581 50.4263 44.5776 50.7946 45.2747C51.176 45.9718 51.3667 46.8201 51.3667 47.8196V54.1919H49.5912V48.0761C49.5912 46.9976 49.3215 46.1756 48.7823 45.6101C48.2431 45.0314 47.5065 44.742 46.5727 44.742C45.6258 44.742 44.8695 45.0379 44.304 45.6298C43.7516 46.2216 43.4754 47.0831 43.4754 48.2142V54.1919H41.6801V39.5929H43.4754V44.9196C43.8305 44.3672 44.3171 43.9397 44.9353 43.6372C45.5666 43.3347 46.2702 43.1835 47.0462 43.1835ZM64.1635 48.372C64.1635 48.714 64.1437 49.0757 64.1043 49.4571H55.4633C55.529 50.5224 55.8907 51.3576 56.5483 51.9626C57.2191 52.5544 58.028 52.8504 58.9749 52.8504C59.7509 52.8504 60.3954 52.6728 60.9083 52.3177C61.4344 51.9494 61.8026 51.4628 62.0131 50.8578H63.9465C63.6571 51.8968 63.0784 52.7451 62.2104 53.4028C61.3423 54.0472 60.2638 54.3694 58.9749 54.3694C57.949 54.3694 57.0284 54.1393 56.2129 53.679C55.4107 53.2186 54.7794 52.5676 54.319 51.7259C53.8587 50.871 53.6285 49.8845 53.6285 48.7666C53.6285 47.6487 53.8521 46.6688 54.2993 45.8271C54.7465 44.9853 55.3712 44.3409 56.1735 43.8937C56.9889 43.4334 57.9227 43.2032 58.9749 43.2032C60.0008 43.2032 60.9083 43.4268 61.6974 43.874C62.4866 44.3211 63.0916 44.9393 63.5124 45.7284C63.9465 46.5044 64.1635 47.3856 64.1635 48.372ZM62.309 47.9972C62.309 47.3133 62.1578 46.728 61.8553 46.2414C61.5528 45.7416 61.1385 45.3668 60.6124 45.1169C60.0994 44.8538 59.5273 44.7223 58.896 44.7223C57.9885 44.7223 57.2125 45.0116 56.5681 45.5903C55.9368 46.169 55.5751 46.9713 55.483 47.9972H62.309ZM68.3285 45.1366C68.6441 44.5184 69.0913 44.0384 69.67 43.6964C70.2618 43.3545 70.9786 43.1835 71.8204 43.1835V45.0379H71.3469C69.3346 45.0379 68.3285 46.1296 68.3285 48.3128V54.1919H66.5332V43.3808H68.3285V45.1366ZM77.7201 54.3694C76.8915 54.3694 76.1484 54.2314 75.4908 53.9552C74.8332 53.6658 74.3136 53.2712 73.9322 52.7715C73.5508 52.2585 73.3404 51.6732 73.3009 51.0156H75.1554C75.208 51.5549 75.4579 51.9955 75.9051 52.3374C76.3654 52.6794 76.9638 52.8504 77.7003 52.8504C78.3843 52.8504 78.9235 52.6991 79.3181 52.3966C79.7126 52.0941 79.9099 51.7127 79.9099 51.2524C79.9099 50.7789 79.6995 50.4304 79.2786 50.2068C78.8577 49.97 78.2067 49.7399 77.3255 49.5163C76.5232 49.3058 75.8656 49.0954 75.3527 48.885C74.8529 48.6614 74.4189 48.3392 74.0506 47.9183C73.6955 47.4843 73.5179 46.9187 73.5179 46.2216C73.5179 45.6693 73.6823 45.1629 74.0111 44.7026C74.3399 44.2422 74.8068 43.8805 75.4119 43.6175C76.0169 43.3413 76.7073 43.2032 77.4833 43.2032C78.6802 43.2032 79.6469 43.5057 80.3834 44.1107C81.1199 44.7157 81.5145 45.5443 81.5671 46.5965H79.7718C79.7324 46.0309 79.5022 45.5772 79.0813 45.2352C78.6736 44.8933 78.1212 44.7223 77.4241 44.7223C76.7797 44.7223 76.2667 44.8604 75.8853 45.1366C75.5039 45.4128 75.3132 45.7745 75.3132 46.2216C75.3132 46.5768 75.425 46.8727 75.6486 47.1094C75.8853 47.333 76.1747 47.5171 76.5166 47.6618C76.8717 47.7933 77.3584 47.9446 77.9765 48.1156C78.7525 48.326 79.3838 48.5364 79.8705 48.7469C80.3571 48.9442 80.7714 49.2467 81.1133 49.6544C81.4685 50.0621 81.6526 50.5948 81.6657 51.2524C81.6657 51.8442 81.5013 52.3769 81.1725 52.8504C80.8437 53.3238 80.3768 53.6987 79.7718 53.9749C79.18 54.2379 78.496 54.3694 77.7201 54.3694Z" fill="black"/>
<path d="M172.235 11.8617V9.80994H176.338V24.1919H174.069V11.8617H172.235ZM188.7 11.7433H182.091V15.6693C182.367 15.301 182.775 14.9919 183.314 14.742C183.867 14.4921 184.452 14.3672 185.07 14.3672C186.175 14.3672 187.069 14.6039 187.753 15.0774C188.45 15.5509 188.943 16.1493 189.233 16.8727C189.535 17.5961 189.686 18.3589 189.686 19.1612C189.686 20.1344 189.496 21.0025 189.114 21.7653C188.746 22.515 188.187 23.1068 187.437 23.5409C186.701 23.9749 185.793 24.1919 184.715 24.1919C183.281 24.1919 182.13 23.8368 181.262 23.1266C180.394 22.4163 179.875 21.476 179.704 20.3054H181.894C182.038 20.9236 182.361 21.4168 182.86 21.785C183.36 22.1401 183.985 22.3177 184.735 22.3177C185.668 22.3177 186.365 22.0349 186.826 21.4694C187.299 20.9038 187.536 20.1542 187.536 19.2204C187.536 18.2734 187.299 17.55 186.826 17.0502C186.352 16.5373 185.655 16.2808 184.735 16.2808C184.09 16.2808 183.544 16.4452 183.097 16.774C182.663 17.0897 182.347 17.5237 182.15 18.0761H180.02V9.77048H188.7V11.7433ZM192.028 16.8135C192.028 14.5382 192.409 12.7626 193.172 11.4868C193.948 10.1979 195.276 9.55347 197.157 9.55347C199.038 9.55347 200.36 10.1979 201.122 11.4868C201.898 12.7626 202.286 14.5382 202.286 16.8135C202.286 19.1151 201.898 20.917 201.122 22.2191C200.36 23.508 199.038 24.1524 197.157 24.1524C195.276 24.1524 193.948 23.508 193.172 22.2191C192.409 20.917 192.028 19.1151 192.028 16.8135ZM200.077 16.8135C200.077 15.7482 200.004 14.8472 199.86 14.1107C199.728 13.3742 199.452 12.7758 199.031 12.3154C198.61 11.842 197.986 11.6052 197.157 11.6052C196.328 11.6052 195.704 11.842 195.283 12.3154C194.862 12.7758 194.579 13.3742 194.434 14.1107C194.303 14.8472 194.237 15.7482 194.237 16.8135C194.237 17.9183 194.303 18.8455 194.434 19.5952C194.566 20.3449 194.842 20.9499 195.263 21.4102C195.697 21.8705 196.328 22.1007 197.157 22.1007C197.986 22.1007 198.61 21.8705 199.031 21.4102C199.465 20.9499 199.748 20.3449 199.879 19.5952C200.011 18.8455 200.077 17.9183 200.077 16.8135ZM163.223 40.5399V54.1919H161.427V44.0121L156.89 54.1919H155.627L151.07 43.9923V54.1919H149.275V40.5399H151.208L156.258 51.8245L161.309 40.5399H163.223ZM176.131 48.372C176.131 48.714 176.112 49.0757 176.072 49.4571H167.431C167.497 50.5224 167.859 51.3576 168.516 51.9626C169.187 52.5544 169.996 52.8504 170.943 52.8504C171.719 52.8504 172.363 52.6728 172.876 52.3177C173.402 51.9494 173.771 51.4628 173.981 50.8578H175.914C175.625 51.8968 175.046 52.7451 174.178 53.4028C173.31 54.0472 172.232 54.3694 170.943 54.3694C169.917 54.3694 168.996 54.1393 168.181 53.679C167.379 53.2186 166.747 52.5676 166.287 51.7259C165.827 50.871 165.596 49.8845 165.596 48.7666C165.596 47.6487 165.82 46.6688 166.267 45.8271C166.714 44.9853 167.339 44.3409 168.141 43.8937C168.957 43.4334 169.891 43.2032 170.943 43.2032C171.969 43.2032 172.876 43.4268 173.665 43.874C174.454 44.3211 175.059 44.9393 175.48 45.7284C175.914 46.5044 176.131 47.3856 176.131 48.372ZM174.277 47.9972C174.277 47.3133 174.126 46.728 173.823 46.2414C173.521 45.7416 173.106 45.3668 172.58 45.1169C172.067 44.8538 171.495 44.7223 170.864 44.7223C169.956 44.7223 169.18 45.0116 168.536 45.5903C167.905 46.169 167.543 46.9713 167.451 47.9972H174.277ZM183.769 43.1835C185.084 43.1835 186.149 43.5846 186.965 44.3869C187.78 45.176 188.188 46.3203 188.188 47.8196V54.1919H186.412V48.0761C186.412 46.9976 186.143 46.1756 185.603 45.6101C185.064 45.0314 184.328 44.742 183.394 44.742C182.447 44.742 181.691 45.0379 181.125 45.6298C180.573 46.2216 180.296 47.0831 180.296 48.2142V54.1919H178.501V43.3808H180.296V44.9196C180.652 44.3672 181.132 43.9397 181.737 43.6372C182.355 43.3347 183.032 43.1835 183.769 43.1835ZM193.31 44.8604V51.2326C193.31 51.7587 193.422 52.1336 193.646 52.3572C193.869 52.5676 194.257 52.6728 194.81 52.6728H196.131V54.1919H194.514C193.514 54.1919 192.764 53.9617 192.265 53.5014C191.765 53.0411 191.515 52.2848 191.515 51.2326V44.8604H190.114V43.3808H191.515V40.6583H193.31V43.3808H196.131V44.8604H193.31ZM203.022 54.3694C202.009 54.3694 201.088 54.1393 200.26 53.679C199.444 53.2186 198.8 52.5676 198.326 51.7259C197.866 50.871 197.636 49.8845 197.636 48.7666C197.636 47.6618 197.872 46.6885 198.346 45.8468C198.833 44.9919 199.49 44.3409 200.319 43.8937C201.147 43.4334 202.075 43.2032 203.101 43.2032C204.126 43.2032 205.054 43.4334 205.882 43.8937C206.711 44.3409 207.362 44.9853 207.835 45.8271C208.322 46.6688 208.565 47.6487 208.565 48.7666C208.565 49.8845 208.315 50.871 207.816 51.7259C207.329 52.5676 206.665 53.2186 205.823 53.679C204.981 54.1393 204.047 54.3694 203.022 54.3694ZM203.022 52.7912C203.666 52.7912 204.271 52.6399 204.837 52.3374C205.402 52.0349 205.856 51.5812 206.198 50.9762C206.553 50.3712 206.731 49.6346 206.731 48.7666C206.731 47.8986 206.56 47.162 206.218 46.557C205.876 45.952 205.428 45.5048 204.876 45.2155C204.324 44.913 203.725 44.7617 203.081 44.7617C202.423 44.7617 201.818 44.913 201.266 45.2155C200.727 45.5048 200.293 45.952 199.964 46.557C199.635 47.162 199.47 47.8986 199.47 48.7666C199.47 49.6478 199.628 50.3909 199.944 50.9959C200.273 51.6009 200.707 52.0547 201.246 52.3572C201.785 52.6465 202.377 52.7912 203.022 52.7912ZM212.721 45.1366C213.037 44.5184 213.484 44.0384 214.063 43.6964C214.654 43.3545 215.371 43.1835 216.213 43.1835V45.0379H215.739C213.727 45.0379 212.721 46.1296 212.721 48.3128V54.1919H210.926V43.3808H212.721V45.1366ZM222.113 54.3694C221.284 54.3694 220.541 54.2314 219.883 53.9552C219.226 53.6658 218.706 53.2712 218.325 52.7715C217.943 52.2585 217.733 51.6732 217.693 51.0156H219.548C219.601 51.5549 219.85 51.9955 220.298 52.3374C220.758 52.6794 221.356 52.8504 222.093 52.8504C222.777 52.8504 223.316 52.6991 223.711 52.3966C224.105 52.0941 224.302 51.7127 224.302 51.2524C224.302 50.7789 224.092 50.4304 223.671 50.2068C223.25 49.97 222.599 49.7399 221.718 49.5163C220.916 49.3058 220.258 49.0954 219.745 48.885C219.245 48.6614 218.811 48.3392 218.443 47.9183C218.088 47.4843 217.91 46.9187 217.91 46.2216C217.91 45.6693 218.075 45.1629 218.404 44.7026C218.732 44.2422 219.199 43.8805 219.804 43.6175C220.409 43.3413 221.1 43.2032 221.876 43.2032C223.073 43.2032 224.039 43.5057 224.776 44.1107C225.512 44.7157 225.907 45.5443 225.96 46.5965H224.164C224.125 46.0309 223.895 45.5772 223.474 45.2352C223.066 44.8933 222.514 44.7223 221.817 44.7223C221.172 44.7223 220.659 44.8604 220.278 45.1366C219.896 45.4128 219.706 45.7745 219.706 46.2216C219.706 46.5768 219.818 46.8727 220.041 47.1094C220.278 47.333 220.567 47.5171 220.909 47.6618C221.264 47.7933 221.751 47.9446 222.369 48.1156C223.145 48.326 223.776 48.5364 224.263 48.7469C224.75 48.9442 225.164 49.2467 225.506 49.6544C225.861 50.0621 226.045 50.5948 226.058 51.2524C226.058 51.8442 225.894 52.3769 225.565 52.8504C225.236 53.3238 224.769 53.6987 224.164 53.9749C223.573 54.2379 222.889 54.3694 222.113 54.3694Z" fill="black"/>
<path d="M301.987 13.361C302.066 12.1379 302.533 11.1843 303.387 10.5004C304.255 9.81651 305.36 9.47455 306.702 9.47455C307.622 9.47455 308.418 9.63896 309.089 9.96776C309.76 10.2966 310.266 10.7437 310.608 11.3093C310.95 11.8748 311.121 12.5127 311.121 13.2229C311.121 14.0384 310.904 14.7354 310.47 15.3141C310.036 15.8928 309.516 16.2808 308.911 16.4781V16.557C309.687 16.7938 310.292 17.2278 310.726 17.8591C311.16 18.4773 311.377 19.273 311.377 20.2462C311.377 21.0222 311.2 21.7127 310.845 22.3177C310.49 22.9227 309.964 23.4028 309.266 23.7579C308.569 24.0998 307.734 24.2708 306.761 24.2708C305.341 24.2708 304.17 23.9091 303.249 23.1857C302.342 22.4492 301.855 21.397 301.789 20.0292H303.96C304.012 20.7263 304.282 21.2984 304.768 21.7456C305.255 22.1796 305.913 22.3966 306.741 22.3966C307.544 22.3966 308.162 22.1796 308.596 21.7456C309.03 21.2984 309.247 20.7263 309.247 20.0292C309.247 19.1086 308.951 18.4575 308.359 18.0761C307.78 17.6815 306.886 17.4843 305.676 17.4843H305.163V15.6298H305.696C306.761 15.6166 307.57 15.4391 308.122 15.0971C308.688 14.7552 308.971 14.2159 308.971 13.4794C308.971 12.8481 308.767 12.3483 308.359 11.9801C307.951 11.5986 307.373 11.4079 306.623 11.4079C305.886 11.4079 305.314 11.5986 304.907 11.9801C304.499 12.3483 304.255 12.8086 304.177 13.361H301.987ZM323.012 11.7433H316.403V15.6693C316.679 15.301 317.087 14.9919 317.626 14.742C318.179 14.4921 318.764 14.3672 319.382 14.3672C320.487 14.3672 321.381 14.6039 322.065 15.0774C322.762 15.5509 323.256 16.1493 323.545 16.8727C323.847 17.5961 323.999 18.3589 323.999 19.1612C323.999 20.1344 323.808 21.0025 323.427 21.7653C323.058 22.515 322.499 23.1068 321.75 23.5409C321.013 23.9749 320.106 24.1919 319.027 24.1919C317.593 24.1919 316.443 23.8368 315.575 23.1266C314.707 22.4163 314.187 21.476 314.016 20.3054H316.206C316.351 20.9236 316.673 21.4168 317.173 21.785C317.672 22.1401 318.297 22.3177 319.047 22.3177C319.981 22.3177 320.678 22.0349 321.138 21.4694C321.612 20.9038 321.848 20.1542 321.848 19.2204C321.848 18.2734 321.612 17.55 321.138 17.0502C320.665 16.5373 319.967 16.2808 319.047 16.2808C318.402 16.2808 317.857 16.4452 317.409 16.774C316.975 17.0897 316.66 17.5237 316.462 18.0761H314.332V9.77048H323.012V11.7433ZM337.23 18.0169H333.245V22.1007H331.154V18.0169H327.168V16.123H331.154V12.0392H333.245V16.123H337.23V18.0169ZM301.741 40.4412V41.9011H297.993V54.1919H296.197V41.9011H292.429V40.4412H301.741ZM313.815 48.372C313.815 48.714 313.795 49.0757 313.756 49.4571H305.115C305.181 50.5224 305.542 51.3576 306.2 51.9626C306.871 52.5544 307.68 52.8504 308.627 52.8504C309.403 52.8504 310.047 52.6728 310.56 52.3177C311.086 51.9494 311.454 51.4628 311.665 50.8578H313.598C313.309 51.8968 312.73 52.7451 311.862 53.4028C310.994 54.0472 309.916 54.3694 308.627 54.3694C307.601 54.3694 306.68 54.1393 305.865 53.679C305.062 53.2186 304.431 52.5676 303.971 51.7259C303.51 50.871 303.28 49.8845 303.28 48.7666C303.28 47.6487 303.504 46.6688 303.951 45.8271C304.398 44.9853 305.023 44.3409 305.825 43.8937C306.641 43.4334 307.574 43.2032 308.627 43.2032C309.653 43.2032 310.56 43.4268 311.349 43.874C312.138 44.3211 312.743 44.9393 313.164 45.7284C313.598 46.5044 313.815 47.3856 313.815 48.372ZM311.961 47.9972C311.961 47.3133 311.809 46.728 311.507 46.2414C311.204 45.7416 310.79 45.3668 310.264 45.1169C309.751 44.8538 309.179 44.7223 308.548 44.7223C307.64 44.7223 306.864 45.0116 306.22 45.5903C305.588 46.169 305.227 46.9713 305.135 47.9972H311.961ZM315.514 48.7469C315.514 47.6421 315.738 46.6754 316.185 45.8468C316.632 45.0051 317.244 44.354 318.02 43.8937C318.809 43.4334 319.683 43.2032 320.644 43.2032C321.59 43.2032 322.412 43.4071 323.11 43.8148C323.807 44.2225 324.326 44.7354 324.668 45.3536V43.3808H326.483V54.1919H324.668V52.1796C324.313 52.8109 323.78 53.337 323.07 53.7579C322.373 54.1656 321.558 54.3694 320.624 54.3694C319.664 54.3694 318.796 54.1327 318.02 53.6592C317.244 53.1857 316.632 52.5216 316.185 51.6667C315.738 50.8118 315.514 49.8385 315.514 48.7469ZM324.668 48.7666C324.668 47.9512 324.504 47.2409 324.175 46.6359C323.846 46.0309 323.399 45.5706 322.833 45.255C322.281 44.9262 321.669 44.7617 320.999 44.7617C320.328 44.7617 319.716 44.9196 319.164 45.2352C318.611 45.5509 318.171 46.0112 317.842 46.6162C317.513 47.2212 317.349 47.9314 317.349 48.7469C317.349 49.5755 317.513 50.2988 317.842 50.917C318.171 51.522 318.611 51.9889 319.164 52.3177C319.716 52.6334 320.328 52.7912 320.999 52.7912C321.669 52.7912 322.281 52.6334 322.833 52.3177C323.399 51.9889 323.846 51.522 324.175 50.917C324.504 50.2988 324.668 49.582 324.668 48.7666ZM342.518 43.1835C343.36 43.1835 344.109 43.361 344.767 43.7161C345.425 44.0581 345.944 44.5776 346.325 45.2747C346.707 45.9718 346.898 46.8201 346.898 47.8196V54.1919H345.122V48.0761C345.122 46.9976 344.852 46.1756 344.313 45.6101C343.787 45.0314 343.07 44.742 342.163 44.742C341.229 44.742 340.486 45.0445 339.934 45.6495C339.381 46.2414 339.105 47.1028 339.105 48.2339V54.1919H337.329V48.0761C337.329 46.9976 337.06 46.1756 336.52 45.6101C335.994 45.0314 335.278 44.742 334.37 44.742C333.436 44.742 332.693 45.0445 332.141 45.6495C331.588 46.2414 331.312 47.1028 331.312 48.2339V54.1919H329.517V43.3808H331.312V44.9393C331.667 44.3738 332.141 43.9397 332.733 43.6372C333.338 43.3347 334.002 43.1835 334.725 43.1835C335.633 43.1835 336.435 43.3873 337.132 43.7951C337.829 44.2028 338.349 44.8012 338.691 45.5903C338.993 44.8275 339.493 44.2357 340.19 43.8148C340.887 43.3939 341.663 43.1835 342.518 43.1835Z" fill="black"/>
<path d="M435.22 21.1932V19.4965L441.849 9.98749H444.571V19.2401H446.406V21.1932H444.571V24.1919H442.362V21.1932H435.22ZM442.46 12.276L437.804 19.2401H442.46V12.276ZM424.469 40.4412L419.99 49.0033V54.1919H418.195V49.0033L413.697 40.4412H415.69L419.083 47.4053L422.476 40.4412H424.469ZM436.227 48.372C436.227 48.714 436.207 49.0757 436.167 49.4571H427.526C427.592 50.5224 427.954 51.3576 428.611 51.9626C429.282 52.5544 430.091 52.8504 431.038 52.8504C431.814 52.8504 432.458 52.6728 432.971 52.3177C433.498 51.9494 433.866 51.4628 434.076 50.8578H436.01C435.72 51.8968 435.142 52.7451 434.273 53.4028C433.405 54.0472 432.327 54.3694 431.038 54.3694C430.012 54.3694 429.092 54.1393 428.276 53.679C427.474 53.2186 426.842 52.5676 426.382 51.7259C425.922 50.871 425.692 49.8845 425.692 48.7666C425.692 47.6487 425.915 46.6688 426.362 45.8271C426.81 44.9853 427.434 44.3409 428.237 43.8937C429.052 43.4334 429.986 43.2032 431.038 43.2032C432.064 43.2032 432.971 43.4268 433.761 43.874C434.55 44.3211 435.155 44.9393 435.576 45.7284C436.01 46.5044 436.227 47.3856 436.227 48.372ZM434.372 47.9972C434.372 47.3133 434.221 46.728 433.918 46.2414C433.616 45.7416 433.202 45.3668 432.675 45.1169C432.163 44.8538 431.59 44.7223 430.959 44.7223C430.052 44.7223 429.276 45.0116 428.631 45.5903C428 46.169 427.638 46.9713 427.546 47.9972H434.372ZM437.926 48.7469C437.926 47.6421 438.149 46.6754 438.596 45.8468C439.043 45.0051 439.655 44.354 440.431 43.8937C441.22 43.4334 442.095 43.2032 443.055 43.2032C444.002 43.2032 444.824 43.4071 445.521 43.8148C446.218 44.2225 446.738 44.7354 447.079 45.3536V43.3808H448.894V54.1919H447.079V52.1796C446.724 52.8109 446.192 53.337 445.481 53.7579C444.784 54.1656 443.969 54.3694 443.035 54.3694C442.075 54.3694 441.207 54.1327 440.431 53.6592C439.655 53.1857 439.043 52.5216 438.596 51.6667C438.149 50.8118 437.926 49.8385 437.926 48.7469ZM447.079 48.7666C447.079 47.9512 446.915 47.2409 446.586 46.6359C446.257 46.0309 445.81 45.5706 445.245 45.255C444.692 44.9262 444.081 44.7617 443.41 44.7617C442.739 44.7617 442.128 44.9196 441.575 45.2352C441.023 45.5509 440.582 46.0112 440.253 46.6162C439.925 47.2212 439.76 47.9314 439.76 48.7469C439.76 49.5755 439.925 50.2988 440.253 50.917C440.582 51.522 441.023 51.9889 441.575 52.3177C442.128 52.6334 442.739 52.7912 443.41 52.7912C444.081 52.7912 444.692 52.6334 445.245 52.3177C445.81 51.9889 446.257 51.522 446.586 50.917C446.915 50.2988 447.079 49.582 447.079 48.7666ZM453.724 45.1366C454.039 44.5184 454.486 44.0384 455.065 43.6964C455.657 43.3545 456.374 43.1835 457.216 43.1835V45.0379H456.742C454.73 45.0379 453.724 46.1296 453.724 48.3128V54.1919H451.928V43.3808H453.724V45.1366ZM463.115 54.3694C462.287 54.3694 461.544 54.2314 460.886 53.9552C460.228 53.6658 459.709 53.2712 459.327 52.7715C458.946 52.2585 458.736 51.6732 458.696 51.0156H460.551C460.603 51.5549 460.853 51.9955 461.3 52.3374C461.761 52.6794 462.359 52.8504 463.096 52.8504C463.779 52.8504 464.319 52.6991 464.713 52.3966C465.108 52.0941 465.305 51.7127 465.305 51.2524C465.305 50.7789 465.095 50.4304 464.674 50.2068C464.253 49.97 463.602 49.7399 462.721 49.5163C461.918 49.3058 461.261 49.0954 460.748 48.885C460.248 48.6614 459.814 48.3392 459.446 47.9183C459.091 47.4843 458.913 46.9187 458.913 46.2216C458.913 45.6693 459.078 45.1629 459.406 44.7026C459.735 44.2422 460.202 43.8805 460.807 43.6175C461.412 43.3413 462.103 43.2032 462.878 43.2032C464.075 43.2032 465.042 43.5057 465.779 44.1107C466.515 44.7157 466.91 45.5443 466.962 46.5965H465.167C465.128 46.0309 464.897 45.5772 464.476 45.2352C464.069 44.8933 463.516 44.7223 462.819 44.7223C462.175 44.7223 461.662 44.8604 461.281 45.1366C460.899 45.4128 460.708 45.7745 460.708 46.2216C460.708 46.5768 460.82 46.8727 461.044 47.1094C461.281 47.333 461.57 47.5171 461.912 47.6618C462.267 47.7933 462.754 47.9446 463.372 48.1156C464.148 48.326 464.779 48.5364 465.266 48.7469C465.752 48.9442 466.167 49.2467 466.509 49.6544C466.864 50.0621 467.048 50.5948 467.061 51.2524C467.061 51.8442 466.897 52.3769 466.568 52.8504C466.239 53.3238 465.772 53.6987 465.167 53.9749C464.575 54.2379 463.891 54.3694 463.115 54.3694Z" fill="black"/>
<path d="M115.082 0V63.5691" stroke="#ED2B2B" stroke-width="1.09602"/>
<path d="M247.7 0V63.5691" stroke="#ED2B2B" stroke-width="1.09602"/>
<path d="M380.318 0V63.5691" stroke="#ED2B2B" stroke-width="1.09602"/>
</svg>
